<mxfile host="app.diagrams.net" modified="2024-07-28T21:57:36.250Z" agent="Mozilla/5.0 (Windows NT 10.0; Win64; x64) AppleWebKit/537.36 (KHTML, like Gecko) Chrome/123.0.0.0 Safari/537.36 OPR/109.0.0.0 (Edition std-2)" etag="PvI3_KF4RA56anZELOP2" version="24.7.3" type="github">
  <diagram name="PÃ¡gina-1" id="w2fxzZ_OM9L8JevGrCaX">
    <mxGraphModel dx="2049" dy="942" grid="0" gridSize="10" guides="1" tooltips="1" connect="1" arrows="1" fold="1" page="0" pageScale="1" pageWidth="827" pageHeight="1169" math="0" shadow="0">
      <root>
        <mxCell id="0" />
        <mxCell id="1" parent="0" />
        <mxCell id="10YtIQFsHozx5cypo1v_-58" value="" style="rounded=0;whiteSpace=wrap;html=1;" vertex="1" parent="1">
          <mxGeometry x="-518" y="-120" width="1018" height="463" as="geometry" />
        </mxCell>
        <mxCell id="10YtIQFsHozx5cypo1v_-1" value="" style="rounded=1;whiteSpace=wrap;html=1;fillColor=#7F00FF;" vertex="1" parent="1">
          <mxGeometry x="-486.63" y="-10" width="222.5" height="330" as="geometry" />
        </mxCell>
        <mxCell id="10YtIQFsHozx5cypo1v_-2" value="" style="rounded=1;whiteSpace=wrap;html=1;fillColor=#007FFF;" vertex="1" parent="1">
          <mxGeometry x="-230" y="-10" width="230" height="330" as="geometry" />
        </mxCell>
        <mxCell id="10YtIQFsHozx5cypo1v_-5" value="&lt;font face=&quot;Times New Roman&quot; color=&quot;#ffffff&quot; style=&quot;font-size: 18px;&quot;&gt;Data Source&lt;/font&gt;" style="text;html=1;align=center;verticalAlign=middle;whiteSpace=wrap;rounded=0;strokeColor=#FFFFFF;" vertex="1" parent="1">
          <mxGeometry x="-468.13" y="10" width="185" height="30" as="geometry" />
        </mxCell>
        <mxCell id="10YtIQFsHozx5cypo1v_-8" value="" style="rounded=1;whiteSpace=wrap;html=1;" vertex="1" parent="1">
          <mxGeometry x="-443.13" y="50" width="140" height="100" as="geometry" />
        </mxCell>
        <mxCell id="10YtIQFsHozx5cypo1v_-9" value="" style="aspect=fixed;sketch=0;html=1;dashed=0;whitespace=wrap;verticalLabelPosition=bottom;verticalAlign=top;fillColor=#2875E2;strokeColor=#ffffff;points=[[0.005,0.63,0],[0.1,0.2,0],[0.9,0.2,0],[0.5,0,0],[0.995,0.63,0],[0.72,0.99,0],[0.5,1,0],[0.28,0.99,0]];shape=mxgraph.kubernetes.icon2;kubernetesLabel=1;prIcon=api" vertex="1" parent="1">
          <mxGeometry x="-406.87" y="70" width="62.49" height="60" as="geometry" />
        </mxCell>
        <mxCell id="10YtIQFsHozx5cypo1v_-10" value="&lt;b&gt;&lt;font face=&quot;Times New Roman&quot;&gt;API MeteoMatic&lt;/font&gt;&lt;/b&gt;" style="text;html=1;align=center;verticalAlign=middle;whiteSpace=wrap;rounded=0;" vertex="1" parent="1">
          <mxGeometry x="-433.13" y="125" width="120" height="30" as="geometry" />
        </mxCell>
        <mxCell id="10YtIQFsHozx5cypo1v_-11" value="" style="rounded=1;whiteSpace=wrap;html=1;" vertex="1" parent="1">
          <mxGeometry x="-475.63" y="168" width="200" height="110" as="geometry" />
        </mxCell>
        <mxCell id="10YtIQFsHozx5cypo1v_-12" value="&lt;b&gt;&lt;font face=&quot;Times New Roman&quot;&gt;Tempo Real&lt;/font&gt;&lt;/b&gt;" style="text;html=1;align=center;verticalAlign=middle;whiteSpace=wrap;rounded=0;" vertex="1" parent="1">
          <mxGeometry x="-411" y="47" width="73.74" height="30" as="geometry" />
        </mxCell>
        <mxCell id="10YtIQFsHozx5cypo1v_-13" value="&lt;b&gt;&lt;font face=&quot;Times New Roman&quot;&gt;Batch&lt;/font&gt;&lt;/b&gt;" style="text;html=1;align=center;verticalAlign=middle;whiteSpace=wrap;rounded=0;" vertex="1" parent="1">
          <mxGeometry x="-412.5" y="170" width="73.74" height="30" as="geometry" />
        </mxCell>
        <mxCell id="10YtIQFsHozx5cypo1v_-14" value="" style="sketch=0;outlineConnect=0;fontColor=#232F3E;gradientColor=none;fillColor=#8C4FFF;strokeColor=none;dashed=0;verticalLabelPosition=bottom;verticalAlign=top;align=center;html=1;fontSize=12;fontStyle=0;aspect=fixed;pointerEvents=1;shape=mxgraph.aws4.data_lake_resource_icon;" vertex="1" parent="1">
          <mxGeometry x="-461" y="200" width="50" height="50" as="geometry" />
        </mxCell>
        <mxCell id="10YtIQFsHozx5cypo1v_-15" value="&lt;font face=&quot;Times New Roman&quot; style=&quot;font-size: 12px;&quot;&gt;&lt;b style=&quot;&quot;&gt;DataLake&lt;/b&gt;&lt;/font&gt;" style="text;html=1;align=center;verticalAlign=middle;whiteSpace=wrap;rounded=0;" vertex="1" parent="1">
          <mxGeometry x="-468.13" y="250" width="49.5" height="20" as="geometry" />
        </mxCell>
        <mxCell id="10YtIQFsHozx5cypo1v_-16" value="" style="sketch=0;outlineConnect=0;fontColor=#232F3E;gradientColor=none;fillColor=#8C4FFF;strokeColor=none;dashed=0;verticalLabelPosition=bottom;verticalAlign=top;align=center;html=1;fontSize=12;fontStyle=0;aspect=fixed;pointerEvents=1;shape=mxgraph.aws4.glue_crawlers;" vertex="1" parent="1">
          <mxGeometry x="-395.13" y="203" width="44" height="44" as="geometry" />
        </mxCell>
        <mxCell id="10YtIQFsHozx5cypo1v_-17" value="" style="sketch=0;pointerEvents=1;shadow=0;dashed=0;html=1;strokeColor=none;fillColor=#505050;labelPosition=center;verticalLabelPosition=bottom;verticalAlign=top;outlineConnect=0;align=center;shape=mxgraph.office.users.csv_file;" vertex="1" parent="1">
          <mxGeometry x="-337.26" y="203" width="46" height="47" as="geometry" />
        </mxCell>
        <mxCell id="10YtIQFsHozx5cypo1v_-18" value="&lt;b&gt;&lt;font face=&quot;Times New Roman&quot;&gt;Crawler&lt;/font&gt;&lt;/b&gt;" style="text;html=1;align=center;verticalAlign=middle;whiteSpace=wrap;rounded=0;" vertex="1" parent="1">
          <mxGeometry x="-406.13" y="245" width="60" height="30" as="geometry" />
        </mxCell>
        <mxCell id="10YtIQFsHozx5cypo1v_-19" value="&lt;b&gt;&lt;font face=&quot;Times New Roman&quot;&gt;CSV&lt;/font&gt;&lt;/b&gt;" style="text;html=1;align=center;verticalAlign=middle;whiteSpace=wrap;rounded=0;" vertex="1" parent="1">
          <mxGeometry x="-346.13" y="245" width="60" height="30" as="geometry" />
        </mxCell>
        <mxCell id="10YtIQFsHozx5cypo1v_-21" value="" style="rounded=1;whiteSpace=wrap;html=1;" vertex="1" parent="1">
          <mxGeometry x="-185" y="50" width="140" height="100" as="geometry" />
        </mxCell>
        <mxCell id="10YtIQFsHozx5cypo1v_-20" value="" style="shape=image;html=1;verticalAlign=top;verticalLabelPosition=bottom;labelBackgroundColor=#ffffff;imageAspect=0;aspect=fixed;image=https://cdn0.iconfinder.com/data/icons/long-shadow-web-icons/512/python-128.png" vertex="1" parent="1">
          <mxGeometry x="-152" y="63" width="74" height="74" as="geometry" />
        </mxCell>
        <mxCell id="10YtIQFsHozx5cypo1v_-22" value="" style="rounded=1;whiteSpace=wrap;html=1;" vertex="1" parent="1">
          <mxGeometry x="-185" y="173" width="140" height="100" as="geometry" />
        </mxCell>
        <mxCell id="10YtIQFsHozx5cypo1v_-23" value="" style="shape=image;verticalLabelPosition=bottom;labelBackgroundColor=default;verticalAlign=top;aspect=fixed;imageAspect=0;image=data:image/jpeg,/9j/4QCARXhpZgAASUkqAAgAAAAFABIBAwABAAAAAQAAABoBBQABAAAASgAAABsBBQABAAAAUgAAACgBAwABAAAAAgAAAGmHBAABAAAAWgAAAAAAAABIAAAAAQAAAEgAAAABAAAAAgACoAQAAQAAAIYBAAADoAQAAQAAAF4BAAAAAAAA/9sAQwAGBgYGBwYHCAgHCgsKCwoPDgwMDg8WEBEQERAWIhUZFRUZFSIeJB4cHiQeNiomJio2PjQyND5MRERMX1pffHyn/9sAQwEGBgYGBwYHCAgHCgsKCwoPDgwMDg8WEBEQERAWIhUZFRUZFSIeJB4cHiQeNiomJio2PjQyND5MRERMX1pffHyn/8AAEQgBXgGGAwEiAAIRAQMRAf/EABwAAQACAwEBAQAAAAAAAAAAAAAEBwUGCAMBAv/EAEsQAAIBAgIECQcHCgUEAwAAAAABAgMEBREGEiFBBzEyUWFxc4GxEyIzNEKRoRQ1cnSywdEVFiM2UlNUYpKTF0NVgtIkRKPhY4Oi/8QAGwEBAAIDAQEAAAAAAAAAAAAAAAUGAgMEAQf/xAA9EQACAgECAgYIBQIFBAMAAAAAAQIDBAURITESM0FRcXIGEyI0YYGRsRQyQlKhYsEVI1OS0VRz4fAWNUT/2gAMAwEAAhEDEQA/AOlQAAAAAAAAAAAAAAAAAAAAAAAAAAAAAAAAAAAAAAAAAAAAAAAAAAAAAAAAAAAAAAAAAAAAAAAAAAAAAAAAAAAAAAAAAAAAAAAAAAAAAAAAAAAAAAAAAAAAAAAAAAAAAAAAAAAAAAAAAAAAAAAAAAAAAAAAAAAAAAAAAAAAAAAAAAAAAAAAAAAAAAAAAAAAAAAAfM0NZAH0H51lzjWXOAfoH51lzjWXOAfoHzWQzQB9AzQAAAAAAAAAAAAAAAAAAAAAAAAAAAAAAAAAAAAAAAAAAAAAAAAAAB8bSAPozR4uo28ks3zI9Y21efHlFe9gHxzijydaJPjZUlys5Ppf4EmNOnDkwiupAGIXl5cmlJ934n7VvdS9lLrf4ZmWbS3kSpf2VLl3FNf7ka521wW8pxS+L2BHVlcPjqRR+vkEt9Z+48Z47hkP8/P6Kb8CNPSTD48SqS6o/jkck9U0+HCWXV/uQMh+T/8A5pe4fk5fvpe4xf5z2X7qr7l+J8ek9psyo1X7l95p/wAb0tf/AKoAyv5OX76XuPy8Pe6s/cY3857P91W9y/E/S0msW9tOqu5fcz1azpj5ZUPrsCc7CrurLvR+HZ3a4nB955x0hwx/5kl1xZLp4rh1RpRuqefS8vE6IahhWcIZNT8JIER07uHHRb6tvgfjy8o8uMo9aM3CrTqLOE4yXOnn4H7aTW1JnUpRlykDCRrxe89lNMl1LK2nx08nzrZ4ESeHTjm6VXul/wCjIH6zQIU5V6D/AEkGlz7vgesK8ZbwCQD4mmfQAAAAAAAAAAAAAAAAAAAAAAAAAAAAAAAAAAAAAAfJPJAH5lNI/dK2nU2z82PNvZ+7WjrvykuLPzV95kQDyhThTWUYpH2pVp0oOdSajFcbbyIWI39OxoOpJZybyjHnZX15fXN5U16089uyK4l1EFqut0YHsJdO1rfo9i+LBt1zpJaU21RhKq+fkx+Jgq+kGI1eTKNNfyr8czBgpeVr+pZDf+b0I90eAPerc3FZ51K05bd78DwAImdtk3vKcpPvb3AABrAAAAAAAAB6D7GUovOMmnzpmQo4tiNHk3EmuaXneJjgbqsrIqe9ds4P4NoG122k81krigmv2ofgzY7TErO79FVTf7L2P3FYn1OUWpRbTT2Nc/QT2H6TZ1LSu2tj8eEvkC23k1k9pja+HU5edRepLm9lmEwbG5zqRt7l5tvKE+nmZtxecHPozaFbU+HJp80+5g1pValKp5OrHVl49XQToTzRMu7WFzS1XskuTLmZr1vWlCpKlPlRbT7jtBmAfmLzR+gAAAAAAAAAAAAAAAAAAAAAAAAAAAAAAAAAAeFeWUX1HuRLnkPqC5h8jL2sozt6Mo8UoRa70SCvNBdJKWIW9fD6s8rm0qTik3yqak8muriZYRtupnTZKEls19u800XQurjOL3T+/cahpRTqZ21T2FrLvf4mpFrV7elcUpU6sc4yW1Gj3+A3Nu3KinVp9HKXcfP/AEh0jJlkTyqoynGW26XFppdxuMCBJqGes8suPPZ78yDUxC2h7Ws+hFQe64NGLlFc2TgYaeLP2KXvf4EaWJXT4nGPUvxMekjW74Lt3NiPuXQatK7uZcdaXc8vA8nWqvjqSfeedIxeRHsRtp8zXOjUNaX7T94zfOx0vgefif6TcM1zjaafnLnfxPqqTXFOS72Ol8B+IX7Tbwaorm4jxVp+89o390v8zPrQ6SMlkR7jZQYKOK1llrQi+rYSoYpRfKjKPxPekjJW1vtMmDyp16NXkTizIWtjdXUsqNJtb5eyu83VU23TUK4SlJ9iW7NiafFHlbwnUuKUYLznNZfiWsjC4Xg9Ky8+T16rW2W5dCM2fRtA0y3Bx5u1+3Y02u5I9PhpuJ1YRxaUYvbqRcl0s2i8u7eytq1xXqKFOnHWk3zIqLCcXqYvf3t7JNKpW8yL3QiskuvnLLGmcq52bezHZb/FmqVsY2Rr39qW7+SLMt5ZxRIIVpyETTUbQAAAAAAAAAAAAAAAAAAAAAAAAAAAAAAAAARLrkMlkS65DPVzXiePk/A5Xd7dWGMVrm1rSp1adxNwkuvf0PeXvotwkWGJRp2+IyjbXWxazeVOo+hvifQzn6/9eu+2n4kUv+Rp1GZRX01tJRW01zR8/wAbUcjDvn0HvFye8HyZ2ymms1tR9ZyjgemuP4LqwoXPlaC/yavnR7t6LawnhWwa5UY39Gpa1N8l+kp+9bfgVbK0TMobcY+sj3x5/QtOLrWHekpS9XLuly+pYd7hOHX0crm2hN8+WT96NSu9BLWebtrmdN/syWuvuNsscXwzEIKVpe0ay/kmm+9bjJFby9Kwr21fjRcu/baRJ/5di3Ti13oqC40Kxmn6NUqq6JZP45GGrYHi9HPXsK2S3qOt4Zl8nwg7vRPT5veE7IfNNfyYvHg+052qUatN5TpTg/5oteJ59Z0W4RfHFPuI1TD7Gpy7WjLrgmcE/Q/9mX9Y/wDkxeP/AFHPuwF+fkfCv4G3/tx/A/H5Ewj+Aof0I0//AA+//qofRnn4d/uKGGwvpYNhK4rCh/Qj0jhWGxeasqCfP5OJ6vQ+/tyofRj8O/3FBJNvJJt9BMpYbiFZ5U7OtLqgy+4UKMORShHqSR65I6K/Q+vf28tvwjserH75FKUNFMcrZf8AS6iz45yS+BnrXQKu8nc3kYrmgm373kWcCSo9GNMq2cozsf8AU/8AgzVEF8TWbLRTB7RqXkHVmvaqPP4cRscYxikopJLiSPzOpTpxcpzjFLe3kvialiWnejdhmneKtNexRWv8VsLBiafCC6GNjbeWP3PZWU1L2pxivjwNyMJjGkGF4NQ8peXCi2vNgts5dSRT2McJ2KXKnTsKMbaD2a786p3bkVxcXFxc1ZVq9adSpLjnN6zfvLDi6HbNqV76K7lxZE5Os1RTVK6T73wRtGlGl19j1XUa8laxecKSfHzOfOzNaF+gn2jK3LI0L9BPtGd+q010ad6uuO0VJHHpt1l2f05y3biy4LTkImkK05CJpUizgAAAAAAAAAAAAAAAAAAAAAAAAAAAAAAAAAiXXIZLIl1yGermvE8fJ+BybfevXfbT8SKSr71677afiReY+nVdXDyo+XW9bPzM+AA2GB6U51Kc1OnOUJLilF5NdWRs9jptpRYpKlilWUUklGplUWz6WZqoNNlFNq2srjJfFJ/c3V5F9T/y7ZR8G0WvacLeM0/WLG2rL+Vyg/vNjt+F7DZOKr4ZcQ53GUZZe/IoUHBZounT4+q28G0SFetahDh63fxSZ0pQ4UdFqrynUuKf06Ty+GZkqfCDojNpLFYJv9qE18Wjlk+HJL0dw3ynYvmjqj6RZi5wrfyZ1rHTLReSzWMW3fPLxPZaV6NS4sYs3/8AbE5FJFvxy7jTL0coS3V0/wCDfX6RXykk6IcfizrF6WaNrY8Xtf60Rqmm2i1LlYrSe3LzdaXgmcwgxWgUdts/4Oh63f2Vw/k6QrcIuitNNq8nU6IU5fekYm44U8Dgn5G1uqj6YqPiyhQbY6Fhrm5vxf8Awa5azlvkoL5Fv3XCxXeatcLiumpUz+CSNYvOETSe5TUbinQTW1UoZe5yzZo4OuvTMGvlQvnx+5zT1DMnzta8OH2Jt5iWIXsta6u61Z/zzbXcmQgDsjCMVtGOyOOUpSe8pbsAAyPAWRoX6CfaMrcsjQv0E+0ZEa37k/MiU0j3xeVlwWnIRNIVpyETSmlsAAAAAAAAAAAAAAAAAAAAAAAAAAAAAAAAABEuuQyWRLrkM9XNeJ4+T8Dk2+9eu+2n4kXmJV969d9tPxIvMfTqurh5UfLretn5mfAAbDAAAAAAAAAAEi35Uuojki35UuoxlyZtp6yJLABzkgAAAAAAAAAAAACyNC/QT7RlblkaF+gn2jIjW/cn5kSmke+LysuC05CJpCtOQiaU0tgAAAAAAAABoemelGIYFVso2tKhNVYzcvKRk+Tktmq1zmk/4mY9/DWX9E/+RkuFD1jCuzq+KKqLbp2BiW4dU51Jye+7+ZV9QzMmvLsjCxqK24fItvAeEG/vMVtra9o20KVWWprwUouMpcXHJ8b2FtHJabTTTyaaya+46V0YxdYvg9tctp1UtSsuacdj9/Gjg1nAroULKo7R5NLv7zu0nMna512y3lzXh3GfABBLmiZfJlG/4l49/DWX9E/+RNw7hDxu6xCzt529moVa9OnJqE88pSS2ZyfcVeZTA/nrC/rlH7aLrZp2GqZyVK3UX9iowzst2xTtf5kdQgApL5luXJAAA9AAAAAABEuuQyWRLrkM9XNeJ4+T8Dk2+9eu+2n4kXmJV969d9tPxIvMfTqurh5UfLretn5mfAAbDAAAAAAAAAAEi35Uuojki35UuoxlyZtp6yJLABzkgAAAAAAAAAAAACyNC/QT7RlblkaF+gn2jIjW/cn5kSmke+LysuC05CJpCtOQiaU0tgAAAAAAAABT/Ch6xhXZ1fFFVFq8KHrGFdnV8UVUXjSfcKPn9ynan77b8vsCw+DrF1aYpOxqSfk7pLVzexVI7V71s9xXzhNRjJxajJPVbWx5bNnUfqjVqUatOrTlqzhNSjJbmtqy6jpyqI5FFlb/AFR+j7Dnx7pUX12Lsl/B1iDF4JidPFcLtbyGzykPOXNJbJLblxPiMoUGUHCyUZLZqWz8UXaMozr6UXumt0clGUwP56wv65R+2jFmUwP56wv65R+2j6Bb1E/I/sUevroeZfc6hAB89fNl6XJAHyUoxTcmkkm23uy5zQ8V4QsGspSp2yld1Fntg8qef0nn8MzdRj3XvaqEpP8A95s1W300reycYr/3sN9BS1xwnYnL0Fhbw+m5T8NXaelvwn30UvlGHUZvN56k5U/dnrHc9Hz9t/Vrw3Rx/wCK4XS26b8dmXKDTcI05wTEpxpSnK3qt5KFXYn1SWa27jciPtotpl0bISi/idtV1Vy6UJKS+AIl1yGSyJdchmtc14mx8n4HJt969d9tPxIpKvvXrvtp+JFPp1XVw8qPl1vWz8zPh9BtmiOi1fSLEHS1nC3pZSrVOZP2Y9LPL7q6K5WTe0Y8zKmiy+2NcFvKXI1ihb17ioqdClOpN8UYRcn8DY6GhWlVeKlDCK6TXtJQ+1kdN4TgeF4Pbxo2VtCnFcbyzlLpb42Zcq93pHZ0mqaY7f1c/wCC00ejlaindbJv+ngv5OTq+hOlVCOc8IrtfyJT+zma9c2l3aT1Li3q0pZ8U4uPidolecJ0IPRWvJxWarUsnltWcjPD1662+qqyqPtSS3W6238TXl6DRVRZZXdP2Yt7PZ77HNPGAZHCsKvcWvaVnZ0tepP3RS43LoRZ5zjXFylLZLmysQhOyajFbt8EkY4z2GYDjV5nK3w25qRfFJQaj73kX9o3wf4Pg9OFStTjdXSybqzWcYv+SL4l8TfUklkkkitZXpDFNxor6S/dLh9EWfD9H5cJ3WbP9q4/VnML0K0pjHWeFVcuhxz+DMHd4biNk8rqzrUfpwcfE67PKtRpVoSp1acZxa2xks0/eccPSC/pe3VFr4bo756JTt7Nkk/jxOPAXbpTwdW9SnUu8Ih5Oos3K3XJl9HPifRxFJyjKMnGSakm00+NNbNvST+Jm05UOlW+XOL5ohMnEtxp9Ga58n2M+GQhhOK1IRnCwuJRkk4yVNtNPm6DHHWGjvzDhX1Sl9lHPqWfPDhXKNcZdJ7cTfp+FHKlNSk10UuRy9VwvE6NOVSrY3EIRWcpSptJdeZBOntNkvzVxbsfvRzCZ6bmyzKpzlBR2lt/G55n4kcW2MYy33jvx8QACQOAFkaF+gn2jK3LI0L9BPtGRGt+5PzIlNI98XlZcFpyETSFachE0ppbAAAAAAAAACn+FD1jCuzq+KKqLV4UPWMK7Or4oqovGk+4UfP7lO1P3235fYsBYP8ALdBKN3TjnVtK1WXXTb87m4uMr8vvQCEJ6MQhOKcZVaqae9N5besp7SHCZ4Ti1zaNPUUtam3vg9q71vNWDlb5OVjyfGM214b8jZmY3Rx8e6K4Sgk/HY3jg2xnydxXwypLzamdSjm/ajykutbe4uM5UsburZXlvdUm1OlUjJZPLi25bNz3nUNjeUr6zt7qi84VacZR79uT6VvInWsX1eRG6K4T5+KJPSMnp0yqb4wXDwZyoZTA/nrC/rlH7aMWZTA/nrC/rlH7aLNb1E/I/sV6vroeZfc6hDeSzexZA0vTvFpYfgc4U5ZVLmXkotbovbJ+7Z3lCppd10K485S2LtbaqqZTfKMdyu9MdLa2J3FS0tKrjZU5NZxfpmtmby9nmXeaEDbtDMChi+LJVo529BKpVXPuUX17y8RjRg4r2W0YR497Kc5XZmQuO7lL5Iwdng+K3yi7Wxr1YvPKcYPV2fzcR4Xdhe2U1C6ta1FvPJVIOOeXNnlsOqIU4U4RhCCjGKSjFLJJLmyImIYfaYja1ba5pKdOaa28a6VzNbiEjr8vWe1VHoePEl5aIvV+zb7fhwOVy1tBtLavloYZf1taM8lb1JcafFqN9O4rrF8OqYbiV1ZzebpTaT509qfeiBGUoSjKMmpJpprjTW3ZlvRNZFFOZj7Pj0o7p93dsRFF9uLfuns1LZrv79zrMiXXIZCwDEvyng9ldtrWnT8/JZefHzZZZ9K2E265DKNKDhY4y5xk0/kXOM1OtSXJx3+pybfevXfbT8SKSr71677afiRT6XV1cPKj5hb1s/MwdM8GdlTt9FrerFedcTnUk+lPV+45mOlODHEaV1ozSt01r2tScJR6G9ZPvzIX0hU3hR25esW/hsTfo84fjZb8+g9vqWJKWUW3uWfuOXMe05x7EryrKle1begptU6VKThkk8lm1k23vOpOMoDS7g4v6NzcXuFQ8tQnJzlRXLg3tajzrmITRJ4cL5rIUd3t0G+Xx5k5rdeZOiDoctk30lHmzR7TS3SW0nrUsXuuPapz8ovdLMz+LafXeM4BWw2+t4us5wlGtDYnqvPzovf1Gg1IVKdSUKkJRlF5OMlk115n4La8LEnKFnqo9KMk00tnw8CorNy4RnX62XRkmnFvdcfEHTnB/o3DB8Hp1qkF8quoqdRtbYxe2Me7eUBozYRxDH8MtZLOM68XJfyx855+468SSWSIP0iypRjXjxf5val4diJ30dxYt2XyXFezH+7PkpRhFyk0klm29yRSukHCfVdzVtsHhDUhsdxNa2s+eK5uZmy8J2L1LDR/yFKTjO7qeSzW6C2y9/Ec6W/Kl1HPo+mVW1PIuj0l0toLs4drOrVtSsqvjj1PZ7byfb4I3ylp/pVTqa7v1Nfsypx1fgkWvojpvRxyXyW5hGjeRWaSfm1EuNxz3rejnYlWV5Wsry3uqMmqlKpGUWujbk+h7yTy9LxbamoVqM/0tLbj8TixdRyK7V0pylHtTe/0OviiuEvR+NrdU8UoQyhXlq1klsVRbU/928u20uIXNrQrwfm1acZx6pLM1/TKyjeaNYnTazcaLqR+lT877ir6ffPHy4PscujLwfAsWbTG/Fmu1R3Xijl46w0d+YcK+qUvso5Q3HWGjvzDhX1Sl9lE16QdXj+L+xE6J1l3gjHab/qri3Y/ejmA6f03/VXFux+9HMBnoHu1v/c/sjXrfvFfk/uAATxDAsjQv0E+0ZW5ZGhfoJ9oyI1v3J+ZEppHvi8rLgtOQiaQrTkImlNLYAAAAAAAAAU/woesYV2dXxRVRavCh6xhXZ1fFFVF40n3Cj5/cp2p++2/L7F/cHv6t0e2qeJjOEfBvlFjSxGlD9JbtRqZcbpyfG/ovxZk+D39W6PbVPE3K4oUrihVo1YKVOpFxlF709hW7L3Rqlli7LXv8VvxRYK6Y36dCt9sF9duByeXBwa4xr0rjC6ktsM6tH6L2SXc9veVhi2HVMMxK6s5vN0qjSfOntT70fcHxKphmJWt5Tz/AEc05Je1F7JLvRaMumOXiNR47reD+PMreNbLFyU3w2e0/DkY0ymB/PWF/XKP20YsymB/PWF/XKP20dF3UT8j+xpr66HmX3OoSl+E65UsRsLf93QlP+5LL3+aXQUXwlfP9H6nD7UipaMk8+LfYmWfVm1hSS7Wivi6uDGhBYXfVtXzpXKg30Qin8NYpUvHgz+Yrr67P7ECb1ttYTS7ZIh9ISeZHfsiyxAAU0thR/CXb6mM21ZZZVbZLpzjJrb3NFdFqcKDXynC1v8AJ1fc2iqy9aW28Gnfu+zKZqKSzLUv3fdbl5cGtec8Er05PNU7qSj0JxT8TeLrkMr7gxT/ACbfvc7hL3RLBuuQyqajFLPuS/cWbAbeDVv+05NvvXrvtp+JFJV969d9tPxIp9Aq6uHlR86t62fmZ8Ni0a0jvNH8RjdUPOhJKNak9inH8VuNeAtqrtrlXNbxfBoyqtnVZGcHtKPFM68wPSPCsctlWsq6k0vPpvZOD6UZ84rtrq5ta0a1vWnSqR5M4PVa9xbejfClcUpQt8Zh5SGxfKILKS+klsfcVDN0G6vedD6cf2/qRbsHXqrdoXroS/d+llp49opg2OU2rq3Sq5ebWh5tRd+/vOdNKNFMQ0dulGr+kt5t+SrpbH0PmZ1VRrUq9KnVpTUqc4qUZLamntTMTpFhNHF8HvLOpFNzptwf7M1tizk07U78W2MJOTr6Wzi+z4o69R0yjKqlOKSs6PCS7fE574N0npfYZ7oVX7oM6hRyjoRdKy0rwyU8lnVdKTe5zTidXI6fSFP8ZXLsdS+5z+jzX4OyParX9ijOGGUvLYLHPzdWu8unzUU9b8cuovzhZw6dfB7W8hHP5NW8/ojUWXiUHb8cuom9FmpabBL9Mmn477kNq0JR1WTfKSTX02JZ8fE+o+n7p0p1akKcI605yUYpb29mzrO9tJNs0RTckkdTaLNy0dwlvj+S017kZHFNV4bfZ8Xyepn/AEsYZafI8Ps7b91RhD+lZGK0tvI2ejmKVXLJ+QlCPXPzV4nz5L1mV7P6rOHzZd2+hjby/TXx+SOWd3cdY6O/MOFfVKX2Ucnbu46x0d+YcK+qUvsosGv9Vj+L+xCaJ1l3gvuY7Tf9VcW7H70cwHT+m/6q4t2P3o5gNmge7W/9z+yNet+8V+T+4ABPEMCyNC/QT7RlblkaF+gn2jIjW/cn5kSmke+LysuC05CJpCtOQiaU0tgAAAAAAAABT/Ch6xhXZ1fFFVFq8KHrGFdnV8UVUXjSf/r6Pn9ynan77b8vsX9we/q3R7ap4m7mkcHv6t0e2qeJu5Us/wB8yPO/uWfC90o8iKp4SsH1qVvilOO2GVKtl+y9sW+p7O8qA6rvrOlfWdxa1lnCrCUZd+zNdK3HL19aVrK8uLWqsp0qkoPZlnq7M1nz7ixaHlesodMn7UOXgyB1fG6FytS4T5+KIplMD+esL+uUftoxZlMD+esL+uUftol7+ps8r+xF1dbX5l9zqEp3hPtdW5w66UH59OdKUt3mvWSfTteRcRrOl+DvFsEr0oRzrU2qtJc8o7t3GthSdPuVOZXOT2j0tn4PgW/Opd2JZFLjzXy4nOBcfBhdQdpiNr7UasanWprV2dWrtKdaabTWTTeaf3ma0exmpg2KUbuKcobYVYL2oPjSz5uNFu1Ch5GJOEfzc4+K4lYwblRlQnLlyfg+B00DFYfjmFYjSVS2vKU9ibjrZSjn+0ntRjsd0qwvCLecpVoVa+XmUISzk298ss8lzspUce+Vnq1XLpd2xbpZFMa+m7I9Hv3Kv4R7tVsehRjPNULeMWuaUm5PvaaNAJF3dVry6rXNaWtUqzcpPplt2Z7luPtnaV726o21CGtUqzUYrr58ty3l5xq1j4sIt/ljxf3KbfY78mc0vzS4L7F38HNq6Oj/AJVvPy9xOa6o5Q+43K65DPmH2VOxsba1pvONGnGCb35bM3llte8+3XIZSMm312TZZ2Sk2vAuFFfqsauD5qK+pybfevXfbT8SKSr71677afiRT6NV1cPKj5rb1s/MxuLFteD+7xLRyxxPDqmvWqRn5WhN5Z6smvMfdxMro6l4PMvzQwzbuqfbZF6zlXYtFVlUuPrEvg1tyZK6Pi05V9ldq3XQb+Ke/NHMt5h99Y1HTurWrRknllOLj7mzwpUa1epGnSpyqTlsjGKzbfRkdpVKNKpHKpTjJc0kmedKztaLzpW9OD54xS8CLXpJLoccf2vNwJR+jUenusj2fLxMFojYXeH6O4da3efloUvOi/Zzeers5jPXNaFC2rVpvKMKcpSfMksz32IprhD01t1a1cIw+qp1Knm3FSLzjCO+Ka3veQmPTdm5e0Y8ZS3ltySb5k3fdVhYvtS4Rjst+b2RR/lpRuHWpyykqmvBrc0817jrXRjG6WN4Pa3kGtdx1asf2ai41+ByKbXoppVd6O3vlIJ1Lao0q1LPjS3x6UW7VtPeVjx6HWVrh8e9FR0nUVi5DU+rnz+D7zqa8tKF5a1ravBTpVYOM4vensOdMc4P8Ywm4qztqM7q1bzhOCznFc00uYvzB8cwzGLZV7K4jUj7UeKUXzSW4zBVMTNycGc4pcH+aDLZk4eNnQhPfivyzXxOR6WEYrWmqdPD7qUnxJUpfei3NCtBK9ncU8RxOKVWO2jQ49Vv2pdPMW5kOJHTlazkX1utRjBPn2s042k00zU5Sc2uXYgUtwn47CcqGEUZJ6jVWu1ufsx+82TSrTuzwunUtrKca941ls2wp575Nb+goCtWq161StWm51JycpSfG29u06NH06bsWRbHaK/In2vvNGqZ0FB0Vvdv83wXceR1jo78w4V9UpfZRycdYaO/MOFfVKX2UdHpB1dHi/sadE6y7wRB0yp1KujOKwpwlOTo7IxTbe1cSRzZ+S8U/wBPuv7M/wADrs/OS5iKwdTnh1ygq+lvLfnsSObp8cqyMnPo7R25bnI35LxT/T7r+zP8DxrWt1b6vl7arSzzy14OOeXXkdgZIp/hY9DhP06ngiYw9ZnkZFdTpiulvx3+G5F5WlQoonarW+jtw2KXLI0L9BPtGVuWRoX6CfaM3637k/MjTpHvi8rLgtOQiaQrTkImlNLYAAAAAAAAAU/woesYV2dXxRVR07imAYTi0qUr628q6aah5845J7XyWjFfmLor/p3/AJan/IseDq+Pj41dUoTbjvyS257kDmaXkX5E7Iygk9ube/Ii8Hv6t0u2qeJu5Bw7DbLDbZW1nS8nSTbUdZy2vb7TZOIPJtVuRZZHlKTfH4kxj1uuiuEucUkCneEnBvJ16GKUoebUyp1sl7S5LeXOtncXERL6xtL+1qW11SVSlPLWi21xPPZllxGzCynjZEbOzk13pmvMxlkUSh29nwZyqZTA/nrC/rlH7aL0/MXRX/Tf/LU/5HrQ0L0Zt69KtSsNWpTnGcH5Wo8nF5rjk+In7NdxZVziq7OMWuS/5IOvRsmM4Nyhwku1/wDBtAAKt2lm7CqtMdCKlerUxDDKec5NutQW9v2odL3oqGcJwnKE4uMotqUWsmmtm3PejrMxWIYHhOJL/rLKnUeWWs1lJLoksmTmFrM6YKF0elFcmuaRDZekxtk51S6MnzXYcvgvivwc6PVWnB3NHLPZConnnz6ylxHrb8HmjdJJTpVq3TOo1n16mqSb1zCS36M/DYjlo+W3tvDx3KLtLO6vK8KFtRnVqSayjFZ9Gb6OcvPRDRGODRlc3Mozu6kUtnFTXMudvezbbLDrCwpuFpa0qMW9qhFLPdty42TCHztXsyYuuEehB8+9kph6XDHanN9Ka5dyBEuuQyWRLrkMiFzXiSr5PwOTb71677afiRSVfevXfbT8SKfTqurh5UfLretn5mDMYXj+MYS87G+q0U3m4J5xfXF5ow4PZ1wsi4zjGS7mt0K7J1yUoScWu1PZll0OFXSWnBRqQtar/alBp/8A5aPaXC1pC08rWzj06svvkVcDhelae3v+Hgdq1XPS2/ETNpxTTTSTFIOncYhONNrbCmvJpp8+rkasD4dlVNNK6NdcYr4LY5Lb7rnvZZKT+L3AANpqJVpe3dlWjWtbipRqLilCWq+/Lcb/AIbwl6T0YuFSpRrpJZOpDJ++ORW572/Kl1HJkYuNdHeyqMn8Vx+p24mVkVTSrtlFPsT4HUWiWldDH7VqSjTuqfpaSez6Uc9xsWJWFHEbKta1nNQqRybjJxa6mjlPD8Qu8OvKV3a1HCrTeafP0Poe86X0a0jtcesI16bUasclWpZ7YS/B7ioanp0sWxW1dXv/ALWXLT86OTD1Vn50v9yKA0l0YvsAu9SqnOhNvyVZLZLofM1vNaOusQw+zxG0qWt1SVSlNZNPxXSjnTSrRK7wG4clnVtJy/R1cuLP2Z5byW0zU43pVWvaz+Jf+SM1DTnS3ZWt4fyjUDcLbTzSW1t6NvSuqap04RhFOlF5KOzbmaeCWtopuS9ZXGSXetyMrttrbcJyjv3PY3f/ABE0r/jKf9qI/wARNK/4yn/aiaQDR+Awv+nh/tRt/G5X+vP6m7/4iaV/xlP+1EwuMaR4tjUaKvq0Zqk24ZQUctbZtyMEDOvDxa5KUKYJrtSW5jPJyJxcZXTafY2wWRoX6CfaMrcsjQv0E+0Zwa37k/Mjt0j3xeVlwWnIRNIVpyETSmlsAAAAAAAAAAAAAAAAAAAAAAAAAAAAAAAAABEuuQyWRLrkM9XNeJ4+T8Dk2+9eu+2n4kXmJV969d9tPxIp9Oq6uHlR8ut62fmZ8ABsMAAAAAAAAAASLflS6iOSLflS6jGfJmynrIks97e7urWTnb16lKTWTcJOOa49uR4A5nFNbSW6JKMmnunszJ/lrGf9Suv7kjyrYpiVenKlWva9SDyzjKbaeW3bmQQYKqtPdVx+iM3bY1s7JfVgAGw1gAAAAAAsjQv0E+0ZW5ZGhfoJ9oyI1v3J+ZEppHva8rLgtOQiaQrTkImlNLYAAAAAAAAAAAAAAAAAAAAAAAAAAAAAAAAACLdch9RKI1ws4vqPVzR4+TOS771677efiRd5mtIrKdjjN9Rmsk6spx6Yy2owp9Mx5RnTXKL3Tin/AAfMciMoXWRktmpNfyfAAbjSAAAAAAAAACRb8qXURyRb8qXUYy5M2U9ZElgA5yRAAAAAAAAAAAABZOhXoJdoyti1tD7WVK0puSyc25e8htclFYezfFzWxLaPGTyt1yUWWlachE0i2yaiuolFPLUAAAAAAAAAAAAAAAAAAAAAAAAAAAAAAAAAD8VI5o/YAK10w0ZhitHXhlG4pp6kuffqvr3FE3NrXta0qNenKE48cX4o62rUVNGm43o3Z4hBxrUU2k9WS2SXUyb0zWJ4qVVi6Vf8rwIPU9HhlN21vo2/xLxOdAbjimhuI2kpSofpqfMtkl3Go1KdSlNwqQlGS401k/iW/Hy8fIj0qrYy+68Sn34eRjy6Ntco/Z+DPMAHScwAAAAAAJFvypdRHJFvypdRjLkzbT1kSWADnJAAAAAAAAAAAn2uGXt015Ok8s+U9iN0wvRanCUZ1v0ks9681HBlaljY6e8ulLuXF/M7sfT8m9raO0e98jX8FwSrdVIVasGqSaaT9r/0XHhdnqKOzmPzY4Yo5eabNRoKCWwqOZm2ZVvSnwS5LsRaMTErxq+jHi3zfee1OOSPUJZA4zqAAAAAAAAAAAAAAAAAAAAAAAAAAAAAAAAAAAAGxnlOlGSZ6gAxFexhPca5f6PWtymqtCE10rwN6aTPOVNMyjOUJbxls/gYyhGcWpR3T7ykr7QO0k26M6lN83KXxNXudDMUpZ+TlTqL+l/E6Nnaxe4hVMPg9xJU6zn1cPWdJf1LcjLtFwLePq+i/wCl7HMlbBsUo569pUyW9LPwzMfOnUg8pwlF9Ky8Tp6phUX7Jj6uC05ccE+tEjX6R2r89EX4Pb7kdZ6NVP8AJe14rf7HNx8L/q6MWM887Sk/9iIctEMNf/Z0/d+B1R9I6P1UTXzTOWXo3evy3wfyaKNPe35Uuouf8z8O/g4H2OiOHx4rWCPX6RYzW3qp/wACv0dyYyTdsOHiVEC3/wA1LH+GiffzUsf4aJq/x/G/0pnV/gl/+pAp8JZlyw0Xs1/2tP8Ap/Em0sBow5NKK6kYS1+tflpk/FpGcdDs/Val4LcpWnaXVTkUKj6omRo4BiVX/KUV/M/wzLnp4PFeyTqeFQXsnJZr2Q+EK4R/k6oaLQvzTk/oipLbRKrLLytV9UV+Js1lova0smqKb55bX8Sw6eHwW4mQtYLLYR92oZd3Cd0tu5cF/B3VYOLV+WqO/e+LNYtsIisvNM5QsIQ3GTjSij1SSOI6zxhSUUeySQAAAAAAAAAAAAAAAAAAAAAAAAAAAAAAAAAAAAAAAAAAAAAAAGSAAPmqj8unE/YAPJ0Ys/HyeHMSAAR/k8eYfJocxIABH+TQ5h8njzEgAEf5PDmP0qMUewAPwqcT7qpH6AAyQAAAAAAAAAAAAAAAAAAAAAAAAAAAAAAAAAAAAAAAAAAAAAAAAAAAAAAAAAAAAAAAAAAAAAAAAAAAAAAAAAAAAAAAAAAAAAAAAAAAAAAAAAAAAAAAAAAAAAAAAAAAAAAAAAAAAAAAAAAAAAAAAAAAAAAAAAAAAAAAAAAAAAAAP//Z;" vertex="1" parent="1">
          <mxGeometry x="-161.73000000000002" y="181.05" width="93.47" height="83.89" as="geometry" />
        </mxCell>
        <mxCell id="10YtIQFsHozx5cypo1v_-24" value="&lt;font face=&quot;Times New Roman&quot; color=&quot;#ffffff&quot; style=&quot;font-size: 18px;&quot;&gt;Tratamentos e JunÃ§Ãµes&lt;/font&gt;" style="text;html=1;align=center;verticalAlign=middle;whiteSpace=wrap;rounded=0;strokeColor=#FFFFFF;" vertex="1" parent="1">
          <mxGeometry x="-213.75" y="10" width="197.5" height="30" as="geometry" />
        </mxCell>
        <mxCell id="10YtIQFsHozx5cypo1v_-27" value="" style="rounded=1;whiteSpace=wrap;html=1;fillColor=#7F00FF;" vertex="1" parent="1">
          <mxGeometry x="30" y="-10" width="210" height="330" as="geometry" />
        </mxCell>
        <mxCell id="10YtIQFsHozx5cypo1v_-28" value="&lt;font face=&quot;Times New Roman&quot; color=&quot;#ffffff&quot; style=&quot;font-size: 18px;&quot;&gt;Armazenamento&lt;/font&gt;" style="text;html=1;align=center;verticalAlign=middle;whiteSpace=wrap;rounded=0;strokeColor=#FFFFFF;" vertex="1" parent="1">
          <mxGeometry x="55" y="10" width="160" height="30" as="geometry" />
        </mxCell>
        <mxCell id="10YtIQFsHozx5cypo1v_-29" value="" style="rounded=1;whiteSpace=wrap;html=1;" vertex="1" parent="1">
          <mxGeometry x="65" y="98" width="140" height="105" as="geometry" />
        </mxCell>
        <mxCell id="10YtIQFsHozx5cypo1v_-31" value="&lt;b&gt;&lt;font face=&quot;Times New Roman&quot;&gt;MongoDB&lt;/font&gt;&lt;/b&gt;" style="text;html=1;align=center;verticalAlign=middle;whiteSpace=wrap;rounded=0;" vertex="1" parent="1">
          <mxGeometry x="105" y="173" width="60" height="30" as="geometry" />
        </mxCell>
        <mxCell id="10YtIQFsHozx5cypo1v_-32" value="" style="dashed=0;outlineConnect=0;html=1;align=center;labelPosition=center;verticalLabelPosition=bottom;verticalAlign=top;shape=mxgraph.weblogos.mongodb" vertex="1" parent="1">
          <mxGeometry x="120" y="110" width="30" height="60" as="geometry" />
        </mxCell>
        <mxCell id="10YtIQFsHozx5cypo1v_-33" value="" style="rounded=1;whiteSpace=wrap;html=1;fillColor=#007FFF;" vertex="1" parent="1">
          <mxGeometry x="260" y="-10" width="210" height="330" as="geometry" />
        </mxCell>
        <mxCell id="10YtIQFsHozx5cypo1v_-34" value="&lt;font face=&quot;Times New Roman&quot; color=&quot;#ffffff&quot; style=&quot;font-size: 18px;&quot;&gt;Interface&lt;/font&gt;" style="text;html=1;align=center;verticalAlign=middle;whiteSpace=wrap;rounded=0;strokeColor=#FFFFFF;" vertex="1" parent="1">
          <mxGeometry x="280" y="10" width="170" height="30" as="geometry" />
        </mxCell>
        <mxCell id="10YtIQFsHozx5cypo1v_-35" value="" style="rounded=1;whiteSpace=wrap;html=1;" vertex="1" parent="1">
          <mxGeometry x="300" y="57" width="130" height="93" as="geometry" />
        </mxCell>
        <mxCell id="10YtIQFsHozx5cypo1v_-38" value="" style="outlineConnect=0;dashed=0;verticalLabelPosition=bottom;verticalAlign=top;align=center;html=1;shape=mxgraph.aws3.internet_3;fillColor=#D2D3D3;gradientColor=none;" vertex="1" parent="1">
          <mxGeometry x="327.25" y="63" width="79.5" height="54" as="geometry" />
        </mxCell>
        <mxCell id="10YtIQFsHozx5cypo1v_-39" value="&lt;b&gt;&lt;font face=&quot;Times New Roman&quot;&gt;Interface Online&lt;/font&gt;&lt;/b&gt;" style="text;html=1;align=center;verticalAlign=middle;whiteSpace=wrap;rounded=0;" vertex="1" parent="1">
          <mxGeometry x="270" y="117" width="190" height="30" as="geometry" />
        </mxCell>
        <mxCell id="10YtIQFsHozx5cypo1v_-42" value="" style="rounded=1;whiteSpace=wrap;html=1;" vertex="1" parent="1">
          <mxGeometry x="302" y="170.97" width="130" height="119.03" as="geometry" />
        </mxCell>
        <mxCell id="10YtIQFsHozx5cypo1v_-40" value="" style="shape=image;verticalLabelPosition=bottom;labelBackgroundColor=default;verticalAlign=top;aspect=fixed;imageAspect=0;image=data:image/png,iVBORw0KGgoAAAANSUhEUgAABLAAAASwCAYAAADrIbPPAAAABGdBTUEAALGPC/xhBQAAACBjSFJNAAB6JgAAgIQAAPoAAACA6AAAdTAAAOpgAAA6mAAAF3CculE8AAAABmJLR0QA/wD/AP+gvaeTAAAAB3RJTUUH6AcKCAUF6FBeSQAAR/dJREFUeNrt3XuUZdddH/jfvlVd/X6ouyX5IWOMbQlswPgJJoQgYjO2MTYOxMZMxMyagNciCZMFLCAzmcw0EEIMxiSeAJm1Mpk14enXjGMY/JJ5TFiZiZFtYCKD/ATaeiCprUd3S13VVWfPH7L6pbrV9dj3nt899/PxattS1b239FPtu8/+3t/epwQAAPTk1AeOPq2WcmOUuDFK3FRreVZEXBcRByJif5Q4GDUOR8RItYA5cy4izkTEw1/8czYiPh8l7ogad0QXd8T++OS133D/aaViHhQlAABgWv7q1uu/bBRrLysRL6s1bo6I46oCsCOfjYhbay237hmd+51DLzt9SkkYIgEWAAATderWoy/t6uh7IuLbI+JJKgIwMV1EfCwifq0ull+/7ub77lEShkKABQBAcw98+MjTV+vi90SNWyLi2SoCMHWrEfHBKPHLZxYOvOcZN//5OSVhlgmwAABo5tTvHH1utzb6sYh4Y0QsqghACvdGxC8txNrPH335Aw8pB7NIgAUAwI791fuve95oofvhiPjuiFhQEYB8apRTJeq/WlpbedvhVzz8BRVhlgiwAADYtodvPXhsue7+ZxHxfa4tAWYmCXigduXHr33wvn9VXh9rCsJs/NoCAMAW1RMxOvXXjv2dLkZvLVGPqQjATCYCHy2l/r3jf/PURxSD/L+uAACwBaduPfqcLkb/Lmq8UDUAZt5aRLztwfNH/rtnv+rTy8pBVgIsAAA27f4PHfueGuUXI2K/agAMysfqWnnDda+479NKQUYCLAAArurkf7xh757T5/5llPg+1QAYqBKno4s3Xftf3P8bikG+X08AANjAAx8+8vTVtcXfjojnqAbAXHjr8f94/4+UE9EpBVkIsAAAGOv+Dx37ilrLByLiaaoBMEdq/NrxY/f/1+VFcV4xyECABQDAuu5//7GX1FH5vyLiuGoAzKUPx6Pxumtfe/9ppaBvAiwAAJ7g1AeOvrwro/dExD7VAJhrH1koa99y9OUPPKQU9EmABQDAZe6/9diLu678TkQcUA0AIuL3zu468Mpn3Pzn55SCvoyUAACAx937wWuf3XXlt0J4BcBF37Tv/Jm319+NRaWgLwIsAAAiIuL+Dx97aon6oYi4TjUAuFSJeM29q8d/QSXoiwALAICot8Wubm30rhrxdNUAYD2lxpvu/dCxf6AS9EGABQBA3Hfq2M9F1K9TCQA2VMtb7vvA8RcqBNPmEHcAgDl33weOv7qWeK9rQwA2pcZnFkdrL3RnQqZJBxYAwBy7+31P+tJa4pdDeAXAZpV45mod/RuFYLq/dgAAzK17P3j8t6LGt6oEAFtV6+g7r3/Fve9WCaZBgAUAMKfu/cC13xlR36kSAGzT52OpfMV1N993RimYNFsIAQDm0F2/+ZR9pdS3qAQAO3BDWa7/RBmYBgEWAMAc2rW0cqLWeLpKALATtcQP3v3+o89VCSZNgAUAMGfue//xJ9eIH1AJABrYtVAWflIZmDQBFgDAnKklfjQi9qgEAI1mlm+/50PXf5U6MEkCLACAOfL5Ww8ei4jvVQkAGiqlW/tHysAkCbAAAObI0urSD0XEAZUAoKUS8Yb7bj1+o0owKQIsAIA58bnf/dI9Ucr3qwQAE7BQV8t/qwxMigALAGBO7F85+9qIuEYlAJiEWuobP/Xbz9qtEkyCAAsAYF6UeosiADCxaSbi6MHRA69QCSZhUQkAAIbvng9cf110a9+iEgBM0ijiloj49ypBawIsAIA5sFDPf3eNskslAJiwVz/4W4evOfLqhx5QClqyhRAAYA7UKK9SBQCmYPfKroW/qQy0pgMLAGDgbn9HLNWIr1cJAKailm+OiHcpBC3pwAIAGLhrD1/7dRGxXyUAmJJvVgJaE2ABAAxcjbWbVQGAKbrp1G8fvUEZaEmABQAwdF35RkUAYJrOj0bmHpoSYAEADF2J5yoCANM0ivocVaDt7xQAAIP1hQ9dczgirlcJAKap1rhJFWhJgAUAMGDLayMLCACmbyTAovWvFAAAQ77Ys4AAYPpqPLu+IxYUgobXNAAADFapX6YIAPRgz12Hjz5FGWhlUQkAAIar1NGRWqtCADB1C6UejoiTKkELOrAAAIasxkFFAKAPpSvmIJoRYAEADFgXAiwAeuJDFBoSYAEADFgpFg8A9DQHRRxSBVoRYAEADFq3Xw0A6EUpBxSBVgRYAABDVqMoAgD9zEFV5kAzfpkAAAAASE2ABQAAAEBqAiwAAAAAUhNgAQAAAJCaAAsAAACA1BaVAABgwLqI6j6EAPSgKgEN6cACAAAAIDUBFgAAAACpCbAAAAAASE2ABQAAAEBqAiwAAAAAUhNgAQAAAJCaAAsAAACA1ARYAAAAAKQmwAIAAAAgNQEWAAAAAKkJsAAAAABIbVEJAAAGrioBAD0oSkA7OrAAAAAASE2ABQAAAEBqAiwAAAAAUhNgAQAAAJCaAAsAAACA1ARYAAAAAKQmwAIAAAAgNQEWAAAAAKktKgEAwHB1SgBAT4oS0JAOLAAAAABS04EFADBkVQkAMAcx+3RgAQAAAJCaAAsAAACA1ARYAAAAAKQmwAIAAAAgNQEWAAAAAKkJsAAAAABITYAFAAAAQGoCLAAAAABSE2ABAAAAkJoACwAAAIDUBFgAAAAApLaoBAAAA1aVAICeFCWgHR1YAAAAAKQmwAIAAAAgNVsIAQAGzz5CAGC26cACAAAAIDUBFgAAAACpCbAAAAAASM0ZWAAAA+b0KwD60ikBDenAAgAAACA1ARYAAAAAqQmwAAAAAEhNgAUAAABAag5xBwAYsi4iijIA0NMcBI3owAIAAAAgNQEWAAAAAKkJsAAAAABITYAFAAAAQGoCLAAAAABSE2ABAAAAkJoACwAAAIDUBFgAAAAApCbAAgAAACA1ARYAAAAAqS0qAQDAwFUlAABmmw4sAAAAAFITYAEAAACQmgALAAAAgNQEWAAAAACk5hB3AIABc347ADAEOrAAAAAASE2ABQAAAEBqAiwAAAAAUhNgAQAAAJCaAAsAAACA1ARYAAAAAKS2qAQAAANWlQCAnhQloB0dWAAAAACkJsACAAAAIDUBFgAAAACpCbAAAAAASE2ABQAAAEBqAiwAAAAAUhNgAQAAAJCaAAsAAACA1ARYAAAAAKQmwAIAAAAgtUUlAAAYsKoEAPSkUwLa0YEFAAAAQGoCLAAAAABSs4UQAGDAuogoygBAD8w/tKQDCwAAAIDUBFgAAAAApCbAAgAAACA1ARYAAAAAqQmwAAAAAEhNgAUAAABAagIsAAAAAFITYAEAAACQ2qISAAAMWFUCAGD26cACAAAAIDUBFgAAAACpCbAAAAAASM0ZWAAAg+YQLAD6UpSAZnRgAQAAAJCaAAsAAACA1ARYAAAAAKQmwAIAAAAgNQEWAAAAAKkJsAAAAABIbVEJAAAGrioBAOYfZpsACwDA+gEAmuuUgIZsIQQAAAAgNQEWAAAAAKkJsAAAAABITYAFAAAAQGoCLAAAAABSE2ABAAAAkJoACwAAAIDUBFgAAAAApCbAAgAAACA1ARYAAAAAqS0qAQDAgHVKAADMPh1YAAAAAKQmwAIAAAAgNQEWAAAAAKkJsAAAAABITYAFAAAAQGoCLAAAAABSE2ABAAAAkJoACwAAAIDUBFgAAAAApLaoBAAAw1WVAAAYAB1YAAAAAKSmAwsAYMi0YAHQl6IEtKMDCwAAAIDUBFgAAAAApCbAAgAAACA1ARYAAAAAqQmwAAAAAEhNgAUAAABAagIsAAAAAFITYAEAAACQmgALAAAAgNQEWAAAAACktqgEAAADVpUAgJ50SkA7OrAAAAAASE2ABQAAAEBqAiwAAAAAUhNgAQAAAJCaAAsAAACA1ARYAAAAAKQmwAIAAAAgtUUlAAAYrqoEAJiDGAAdWAAAAACkJsACAAAAIDUBFgAAAACpOQMLAGDoHEICAMw4HVgAAAAApCbAAgAAACA1ARYAAAAAqQmwAAAAAEhNgAUAAABAau5CCAAwaG5BCIA5iNmnAwsAAACA1ARYAAAAAKQmwAIAAAAgNQEWAAAAAKk5xB0AYMg6JQCgJ0UJaEcHFgAAAACpCbAAAAAASE2ABQAAAEBqAiwAAAAAUhNgAQAAAJCauxACAAxYF24CBQDMPh1YAAAAAKQmwAIAAAAgNQEWAAAAAKkJsAAAAABITYAFAAAAQGruQggAMGRVCQAwBzH7dGABAAAAkJoACwAAAIDUBFgAAAAApCbAAgAAACA1ARYAAAAAqQmwAAAAAEhNgAUAAABAagIsAAAAAFITYAEAAACQmgALAAAAgNQWlQAAYMCqEgDQk6IEtKMDCwAAAIDUBFgAAAAApCbAAgAAACA1Z2ABAAycY7AA6IMjsGhJBxYAAAAAqQmwAAAAAEhNgAUAAABAagIsAAAAAFITYAEAAACQmgALAAAAgNQEWAAAAACktqgEAAADV5UAgB50SkA7OrAAAAAASE2ABQAAAEBqAiwAAAAAUhNgAQAAAJCaAAsAAACA1ARYAAAAAKQmwAIAAAAgNQEWAAAAAKkJsAAAAABITYAFAAAAQGoCLAAAAABSW1QCAIAB65QAAJh9AiwAgAGrSgBAT3yGQku2EAIAAACQmgALAAAAgNQEWAAAAACkJsACAAAAIDUBFgAAAACpuQshAMCgdRFRlAGAHph/aEcHFgAAAACpCbAAAAAASE2ABQAAAEBqzsACABiyqgQA9MQRWDSkAwsAAACA1ARYAAAAAKQmwAIAAAAgNQEWAAAAAKkJsAAAAABITYAFAAAAQGoCLAAAAABSE2ABAAAAkJoACwAAAIDUFpUAAHpVlIBJ6iIiqjowhTcz72YATJAACwAmuJ5TAmBe1E0GpYIuALZDgAUAO2MpRm41dGCR61dyzO+jYAsGqFMC2hFgAcDmWV4BTMh6wZZQC4DHCbAAYDxLJ4AeXRlqCbQA5pcACwCuWB8pAUBOlwZawiyA+SLAAgChFcDMEWYBzBcBFgDzynIHYCCEWQDDJ8ACYN5Y2gAMmDALYJgEWADMi+Kfk7nURVS/Fczpm8XjYZYgC2D2CbAAsD7zswFzqM7Rm5sgC2D2CbAAGKLiZwDox9WCsT7fHAVZALNLgAXAkJQ5e12AmVMTvJEKsgBmjwALgNlZ9HzqbbtXDp5+dnT1poh6Y9RyY4l6Q43YHyUORFf2R6nXqBRc1K2tHIzaKcQ8vEeeX4lubSXq2mp0a8vRrTwa5x/5QqyefeCx/33kgehWV/L+/Ff89TSyJUEWwOwQYAGQdzFz6sSh5UcXvnE0im+uNW5eiYe+KtZi4dLlTr105VOqosEVRgtLijA3V/Z7Ln2DXNfqIw/EuS+cjHMP/GWce+BkdMtn884Bl/z/SedLtQqxANJPc0oAQCZn/uqnrl9cq28stb5h5Vy8uJRYqHIpgDYX//uuiQP7rokDN3x1REScP3MqHvmrO+LM3Z+I1UcejIicQc40wizdWADJ5zAlAKD3hcnnTuxZ2TV6TZRyS6x2rzA/AUzHrgPH4vCBr4/Dz3xpnHvwrnjkrk/E2Xv+LLrV5R097yRDoEmHWbqxAHKyQACgN/XeEweWVxf+7kqNH4mIp6oIQF9K7Dny1Nhz5Klx5KZvirN3/kk89Lk/jLXlM9t7f9+gc7ZlOFQv/PSN5yfdWADpCLAAmLp66sShlXML379yvv5oiXpURQDyGC0sxsEveUEceNrz4pG774gHP/v/XNhe2GQOWCfc2mlQNKmuLN1YAHkIsACYmlpPjM7fOfo7K+firRH1mIoA5FXKQux/ynNi35NvijMn/zge/PQfRLd6fkLzw5WvvYPnevw5Gv5sQiyA/gmwAJiKlTt/4vkrd8YvRcTXhkPZAWZGiYU4+LQXxL7rbowHP/Uf4sxdn5j4bQEvDbS2Gx61DLJsKQTonwALgMkuQk6+de/5OP2ztcb3R8RIRQBm08LuA3HsK18Z+66/Ke77xAejWz579Qc1CHx2Gma1DrKEWLB5hgstWUgAMDHn7vzJm1bK2f+3lvL3zTkAw7D32i+LG176PbH32Jde/ZvrmD/bVOvFP1t+bKN//qqLGKAXFhMATMTK53/8llLrbRH1q1UDYGCLiKV9cf0L/1Zcc+NfjyjbWFI0CLW2E2TtMD+77LUBmC5bCAFoqtYTi8t3jn6hRrxJNQCGrMThL31J7D54fdz7x++NbnVlhxPIZU+9hXnniw8pW3upnW5tsp0QYLoEWAA0Uz/1tt0rdz74KyXqd6oGwHzYc+xL4kkveWPcc9u7Y235zBO+vq2MZxth1laDrBZnYwmxYAtjGXbIFkIA2lyffO7EkeV9D3wwhFcAc2fpwLF4ykveELv2XbPu+nVHuwW3+MCtbi3c6fradkKA6RBgAbBj9a4Tx1d2ld8vNb5RNQDm0+K+w/Hkl7w+lg4cu/q8EdsMtSYUZO30bCwhFsDkCbAA2JF614l9K115b0Q4rB1gzi3s3h9PetF3xuLeQ1ufT2ILQdIWvnla3VhCLIDJEmABsP2L9dv+l10rdfTuiHipagAQcTHEGi3t39adAiO2EWZd7Vu22I217XlRiAUwMQIsALZ5kV7LypPu/jdR6ytUA4BL7dp3JJ70wm+P0eKuL84ZT/yz6fkmNhEqNe7GEmIB5OMuhABsy7nP/8T/VEr5HpUAYD1Lh66P41/1irj347+57tevDHqudje/Td2YcBO3Ftzs3Qpr7OwOhQC0JcACYMsePXnim0rU/8GtkQHYyP7rnhWHvuRr4uG//KOrfu+lgdZmw6ydBlmTCrE289wAbI0thABsyel7TlxXIn4tIhZUA4CrOXrTX4+lQ9dv6TGb3WZ41Z2D9eqvs5nX2A5bCQHaEmABsIWL8ROjXSvxqxHxZNUAYDPKaDGue96roizuvuxw9s3kO5s9M0uIBTB8AiwANm35znhTlHiZSgCwFbv2HYmjz/76J/z97YRZY7++0fNc5UUmGWIB0IYzsADYlIc//8+ORV35SZUAYDsOPe15cebOP41zD92z7tc3dUh7XP0Q9rrB164WYk3iTCznYQG0oQMLgE3ZHStviYjjKgHAtpQSR5/zzRHl6kuQzXRmbdSRtdkztNZ73GZ+tkk8LwAbE2ABcFWP/sWJb6g1/iuVAGAn9hy+Pg7e8JWbPtsqYnNB1na+1vIxAEyeLYQAXFVZqD8dNWyAAGDHjj776+L0nbdHXVuLiMsDo4222j3+bet9y0bbCrezhe9qj7GVEGD6dGABsKFHT574pqjxDSoBQAsLS/vi0A1fte7XNnvHwXHf0nJL4Y7ufAhAcwIsADZUav3HqgBAS0e+7EVRysLYr29mi2G9ymPHfW0rWodYticCbJ8thACMtXLyxEu6qC9TCQCaLkL2HIj9T/2KePjk/xflKvvqNtwe+MX/HbetsMWWwtZb/2wlZJ7IbGlJBxYAY63V+sOqAMAkXPOMFzy2wK31wp8NF8Lb7Mba6nO1em0A2tKBBcD6F+Sf+bHDy1G+zX4HACZhaf/R2HPkSXHuwXsuzj1fnHPGdWVdrRtrkp1YG86ZsbVD3XVhAWydAAuAdS3vWnpjRLdXJQCYlINP+YrLAqzHbTfIGrelsEWIJXQC6JcAC4B1lVJu0XwFwCQdfMpNcf+f/t9R69q6X78YZMWYr2++G2vSIZYuLFhPpwQ04wwsAJ7g3MkTz6o1XqoSAEzSwq49se+6p0eNq59/tdXzrOoWvrcVn/sATI4OLACeqOu+NUr4XBiAidt//Blx5p7PXAixNpp+Nuqiilh/S+FmOrH62kqoC4vB8/tNQzqwAFjvYuNmRQBgGvYd/5LL/rp+8T/jbLUba7OdWFvpznJXQoDpE2ABcMVF+d9eiIhvVAkApmHXvsOxa++hJ85HmwiyNvv3JxFiATBdAiwALnP+L7/8ayLiGpUAYFr2Hnva2K9tFGRNIsTarFZdWEIzgM1xBhYAl+lK/A0bIACYpn3HboiHT96+4Xk5Neq652ONPf+qbu5MrPWez7lUAPnowALgMiXqV6oCANO0dODYY/+nxoafoWy1G2sz3U072UqoCwtgegRYAFxxwV1uVAUApmlp/zVXTkZXmau2H2K13koIwHTYQgjAlVf2NykCANM0WtgVC7v3x9ry2Uvno8eUcdPV+C2FV9sC2HIroS2HAFOaK5QAgAsX4SdPHI2I4yoBwLQ9oQvrwuS0wby1yY16mznUfRJdWLYRArQjwALggvNx/lmqAEAflvYfGf/FLYZYrc7DanEWFgBtCLAAuKCr5YgqANDLwmRx98bfsMEB79sNsTaTO+00nJJtAbThDCwALihdPVid4wFAH3PQ4q4LYdGGU9GYA6zWOxNrO+dTbfdMqxZnYTlPi8HplIB2dGABcPEaYzQ6qAoA9GHhkg6sq3YtbaET6wnf00MXFgA7J8AC4ILSxQFVAKCXhcnirsv+ersh1hO+bTNnX23jMVsh/wJoME8oAQCPK6XuVwUAepmDFnY94e9tcOzVWJs5D2tSHVUtnle3F8D6nIEFwCWrh7oQDsECoJc5qIwNq8Yce7Wl87Cu5sqnuvI8KudTwTaGtRLQkA4sAABgdm1zK+G0O500VgHsjA4sAC5woxgAshrbhTXmi9vpwrrqz7CJLiydWgCTIcACYJ1VAADkm382DLE28wpX2RZ4tW2EU6uEEAzgCQRYAFykBQuAvtTNf9tmz8OaRBcWAP1wBhYAAJBC3UKI1eo1nvDXW/z+rfxz6HEG2D4BFgAAkMaODlev6/0tsRHAEAiwAACAVDbV5bTlLwAwy5yBBQAA9K/GZeFTy4PMrzwLa6uHuQPQPx1YAABASlfrxKo9/RzTOAer6iQDuIwOLAAu0YXPnAHoR237VFeZzlp2eAEweTqwAACAtFp1YV3tMHcdTwC5CbAAAIDhqb0+HIDGBFgAAEBqGc7C2s45WAC0I8ACAADmwpXbCLOHUEIygIsEWAAAQHrTCHNav8ZO70QIwEXuQgiAq2oABjF9lU39zR0+JwC9EGABsM7lOgAknKFqRJEoAcwlWwgBAIC5UXfwQY2D3AH6I8ACAADmlhAKYDbYQggAAORQd/7wTZ2DVca/rm2K0JCxREMCLAAAIAXNUDAsnRLQkC2EAADAzJi1LX+2KAK0IcACAAAYo87Y8wIMlS2EAFyiC4cVANAPkQ4A4+nAAgAA5kq1rw9g5giwAACAwagTfozsC6AfthACcJFbxQDQlzrh557QDvlaI4rd9wATpwMLAAAAgNQEWAAAwEyZ9Da+TNsEbVkEeIwthABceamsBACYfwBIRYAFAADkIMMCYxrGsIUQAAAAgNQEWAAAAACkJsACAAAAIDVnYAFwGUcVAGD+eeLPVvwrAuiVDiwAAAAAUtOBBcAluvAZMwAAkI0OLAAAAABS04EFwOUcggWA+QeAZHRgAQAATFAVzgHsmAALAAAAgNRsIQQAAHpXI6JOcB/hlbcoqbVGFDcuAZgVAiwAAKB/NZyDBUMjI6YhARYA66wgAMD8A0AezsACAAAAIDUBFgAAAACpCbAAAAAASE2ABQAAAEBqAiwAAAAAUhNgAQAAAJDaohIAcMFaF1GKOgDQg6oEAIylAwsAAACA1ARYAAAAAKRmCyEAAJCDXYQwLJ0S0I4OLAAAAABSE2ABAAAAkJoACwAAAIDUnIEFwBUcQAIAAOSiAwsAAACA1ARYAAAAAKQmwAIAAAAgNWdgAXA5R2ABYP4BIBkBFgAAkIIMC4alKAEN2UIIAAAAQGo6sAC4gs+/ATD/AJCLAAsAAMhBhgXAGLYQAgAAAJCaDiwALuiUAICeaL4CYCM6sAAAAABITYAFAAAAQGoCLAAAAABScwYWAJdwChYAfXEKFgDj6cACAAAAIDUdWABc1EVEUQYAeqABC4AN6MACAAAAIDUBFgAAAACp2UIIAAD0r0a7bYRlzPMD0+VoChoSYAHgCh8AAEjNFkIAAAAAUhNgAQAAAJCaAAsAAACA1ARYAAAAAKQmwAIAAAAgNXchBAAAUnAfXBiWTgloSIAFgMsMABIQXwEwngALAOsHAAAgNWdgAQAAAJCaAAsAAACA1GwhBAAAcrCNHYbF8ao0pAMLAAAAgNQEWAAAAACkZgshAFewfwMA8w8AuejAAgAAACA1ARYAAAAAqQmwAAAAAEhNgAUAAABAag5xB+CiLiKKMgDQA2e4A7ABHVgAAAAApKYDC4BLdEoAAACkowMLAAAAgNR0YAFwGUeQAGASWkcxWQL0SYAFAAAkMclkqEz59QB3B6IlWwgBAAAASE2ABQAAAEBqthACAAC9q2FDHwDjCbAAWGcJAQDmHwDysIUQAAAAgNQEWAAAAACkZgshAJezgwMA8w8AyejAAgAAACA1ARYAAAAAqdlCCAAAzB5bDsE4Za4IsAC4RKcEAFjpApCOLYQAAAAApCbAAgAAACA1ARYAAAAAqQmwAAAAAEhNgAUAAABAagIsAAAAAFJbVAIALuc25gAAQC4CLAAu6iKiKAMAAJCLLYQAAAAApCbAAgAAACA1WwgBAID+1XAMIwBj6cACAAAAIDUdWABcolMCAHpSp96AVS579ck87ySeH2ZnVEM7OrAAAAAASE2ABQAAAEBqAiwAAAAAUhNgAQAAAJCaAAsAAACA1NyFEIDLuV0MAOYfAJIRYAFgBQGA+QeA1GwhBAAAACA1HVgAXLAWEUUZAOhBvfBfwGC4sKQhHVgAAAAApCbAAgAAACA1ARYAAAAAqQmwAAAAAEjNIe4AXMIx7gAAQD46sAAAAABITYAFAAAAQGoCLAAAAABScwYWABd14QgsAPpRlQCA8XRgAQAAAJCaDiwAACAFTVgAjCPAAsDyAYAc848pCIalUwLasYUQAAAAgNQEWAAAAACkJsACAAAAIDUBFgAAAACpCbAAAAAASE2ABQAAAEBqi0oAwEVdRBRlAKAHVQkAGEsHFgAAAACp6cAC4HI+AAcAAJLRgQUAAABAajqwAACA/tXotwu4rPPzAJCGDiwAAAAAUhNgAQAAAJCaLYQAXMGeCQAAIBcBFgAAkEDLQ7DKmOcHpqtTApqxhRAAAACA1ARYAAAAAKQmwAIAAAAgNQEWAAAAAKk5xB2Ai7pY/9xbAJiwWh2zDkPjspKWBFgAXKKL6lIDgB5U8RUAG7CFEAAAAIDUdGABAAA5aMKCYdHYT0M6sAAAAABITYAFAAAAQGoCLAAAAABScwYWAFdwAAkA5h8ActGBBQAAAEBqAiwAAAAAUhNgAQAAAJCaAAsAAACA1BziDsDlnKELgPkHgGR0YAEAAACQmg4sAC7RRURRBgAAIBUBFgAAkINthGBMwxi2EAIAAACQmgALAAAAgNQEWAAAAACkJsACAAAAIDUBFgAAAACpuQshAFdwuxgA+pl/zEAwLJ0S0JAOLAAAAABSE2ABAAAAkJothABczv4NAAAgGR1YAAAAAKSmAwsAAOhfjcl2AZcxrwlMd9zBNunAAgAAACA1HVgAXKILH5UB0A/tUACMpwMLAAAAgNQEWAAAAACkJsACAAAAIDUBFgAAAACpCbAAAAAASM1dCAG4wD0IAQCAjARYAFzURbiNOQC9MP0AsAFbCAEAAABITYAFAAAAQGq2EAIAADnYRgjD0ikB7ejAAgAAACA1ARYAAAAAqQmwAAAAAEjNGVgAXKKLiKIMAPSgOgILgLF0YAEAAACQmgALAAAAgNQEWAAAAACkJsACAAAAIDWHuANwOSfoAmD+ASAZARYAVhAAmH8ASE2ABQAA5LCVDKs0eh4AZoIzsAAAAABITYAFAAAAQGoCLAAAAABSE2ABAAAAkJpD3AEAgCSc4g7A+gRYALjoBwAAUrOFEAAAAIDUBFgAAAAApCbAAgAAACA1Z2ABcFGnBAAAQD46sAAAAABITQcWAADQvxpuhAtDU5SAdgRYAFzCHkIA+iK9AmA8ARYAANC7vhuwyjo/D9B2XMFOOAMLAAAAgNQEWAAAAACkJsACAAAAIDVnYAFwGWd+AGD+ASAbHVgAAAAApKYDC4Ar+AwcAPMPALkIsACwfgDA/ANAarYQAgAAAJCaDiwAACAHXVgwLJ0S0I4OLAAAAABSE2ABAAAAkJoACwAAAIDUnIEFwCUcVAAAAOSjAwsAAACA1ARYAAAAAKQmwAIAAAAgNQEWAAAAAKkJsAAAAABIzV0IAbjITQgB6EtVAgDGE2ABYAUBgPkHgNQEWMzPJdGptx06v/zojTVGN0bEl0cpN9ZabygR+yPqoRrlUIk4EBF7VAuYu/fIuhbRPfan1i6iW41u9VzU1XPRrS5HXX006tp5hQIm/F6kBjCoMa0ENCTAYrhvlve9+eDyyuhryyheFjVetrK8/IKIUbn0CuniX5RL/j/A/CllIWJhIWIhLrwfjuLw5e+r3WrUlbOxtnw6uuXT0Z1/xKUpAABTIcBiUM7e9/NPXlhd++5S6xtXzsfzS4mRtRVAG2W0GGXP4Rjt+WKwtXY+Vh99INYe/UJ0K2cUCACAiRFgMfPq507sWVna97oo9ZY4f/5bImJBVQCmYGExFg9cG4sHro26ei5WH/lCrD1yKuraitoAANCUAIuZVe89cWB5dd/fXYn4kYh4atgECNCbsrgndh16Suw69JRYe/SBOH/67qjnH1UYAACaEGAxc+qptx1aOffo96+slh8tEUdVBCCXhb3XxMLeI9GdezjOn747upWzigIAwI4IsJgZtdZy/p6fvWV5+dzPlVKOqwhAZiVGew7H7j2HYu2RL8TKwycj1laVBdjoak8JABhLgMVMWPn8z3zNyj0/+4tR46U2CgLMkhIL+47Fnr2HY/Xhu2P17L0R1SIVAICtEWCRWv3ciT3nd+99c434+1Edzg4wq0pZjF2HnxYLe4/GygOfi7p6TlEAANg0ARZpnTv5M89eWYh3RMTXqAbAMIyW9sfu654Tqw+djNWz9ykIAACbIsAipeW73vy3Iur/GhFHVANgWEopsevIl8RoaX+cf+Avo9ZOUQAA2JAAi1RqPTE6f+eet9Ya/1A1AIZtYe+xKIv7YuXUp6OurSgIAABjCbBIo95+Ymnlrr3/e5T4LtUAmA+jXXtjz3VfHsv3fyq6848oCMz1xWC4ESEMcVxDq+tGJSDF+9o9P7t/5cjefx8hvAKYv6uRXbF0/KYYLR1QCwAA1r9kVAL6Vj/zzw+vrNbfjYhXqAbAfCqjhVg6fmOMdh9SDAAAnkCARa/q507sWd5T3hulvlg1AOZbKaNYOvYsnVgAADyBM7DoTa3vWFi587O/UqJ+o2oAEPHYHQqXjj0zlu+7I+rqOQUBACAiBFj0pNZalu/6mX9dSnyHagBwqTJajN3Hnx3n7vuzqGvnFQTm5fpQCQDYgC2E9GL5zjf/YIn6vSoBwHrKwlLsPvqsiCiKAQCADiymb+Xun35x7eKnVQKAjYyW9sXS4afGykMnFQPmgh4sADa4NlQCpnpZ8rmfP1K78vaIWFINAK5m8cB1sbD3GoUAAJj360IlYJpWlpb/bUQ8QyUA2JwSS0eeHueWz0ZdW1EOGLI60W8HepnFoR0dWEzN8p0//YaIeJ1KALCli9/RYixd86UKAQAwx3RgMRX1vjcfXFnpfs5nZQBsx8Keg7Gw90isPfqgYsCgLxqVAID16cBiKs6f7348Ip6qEgBs19KRp0UpLl0AAOaRq0AmbvnkT311rfEDKgHATpSFpVg89GSFAACYQ7YQMnmj0U/5XQOgyYXLgetj9cy9DnSHQbJ/EIDxdGAxUSuf/+fPi4hvVQkAWiilxK4D1ykEAMCcEWAxUbV0/324eyoADS0cuC7KSGMvAMA8EWAxMedO/vSzIsp3qAQALZUyikVdWAAAc8XHl0zOQv2hqLGgEAA0v4A5cF2cf/ieiOgUA+aWM7PAOGWe6MBiMm9Tt59YKjVerxIATEIZLcTCvsMKAQAwJwRYTMTK4aXXRMQxlQBgUhb3HlUEAIB5ufZTAiaixC2KAMAkLew9HKUsRu3OKwYMgZ1GAGxABxbtrz3uesvxKPFKlQBgskos7LtGGQAA5oAOLJpbWVv+lihll0oAMGkLew7H6pl7FQKGQhcWDEtRAtrRgUX7645R3KwKAEzlQmbpoKtjAIA5oAOL5kqNm318BsBU5pxRiYXd+2Jt+axiAAAMmA4smnrkzn/6tIh4pkoAMLWLmd2HFAEAYOjXfEpASwtd+RuqAMBU556lg4oAADBwthDS1qg+N6qzSACYnrJrd9i6DkNgHAMwng4sWi8jblIDAKY68ywsRRktKAQAwIDpwKKtLm5yMygApq0s7om64iB3mHV6sGBoy0NoR4BFuwuO+o6FlTs/+WUqAcC0jRZ2RxcCLACAwV7vKQGtnLv7kzdExB6VAGDaHjsHCwCAodKBRTMLXXekykQB6EEpC/YeAQAMmACLhouHxQO12uUMQA8c4g6zr4YgGobG8pCGBFg0s9atHSzFCe4A9KCMrHxh5hnDAIxnvxft1g6lHFQFAHqZg3RgAQAMmg4smumi7C8+OQOgD8VncgAAQybAouHiYW0U1RZCAPrhIxQAgOHycSUAAAAAqQmwAAAAAEhNgAUAAABAas7AAgAGwilYAABDpQMLAAAAgNR0YAEAs6+GBiwYwjgGgDEEWLjyAMD8AwBAagIsAAAgB1k0AGMIsGhnLSKKMgAAAABtCbAAgIHQugHGMABD5S6EAAAAAKQmwAIAAAAgNVsIAQCA3tWwiRCA8QRYTODSAwDMPwAAtGMLIQAAAACpCbAAAAAASM0WQgBgAJyeA8MYxwCwPgEWAGDtCxjDAKQmwAIAAHIQYsGwFCWgHQEWDXVKAIBVLwAAzTnEHQAAAIDUBFgAAAAApCbAAgAAACA1Z2ABAAPhHCwAgKHSgQUAAABAagIsAAAAAFKzhZDGbN8AAAAA2tKBBQAAAEBqAiwAAAAAUrOFEAAYBrvYAQAGS4AFAAyEBAtmewhXwxhMzTCWLYQAAAAApKYDCwAYBB/ygjEMwHAJsGhoLaIWZQCgh5WvpS8MYigrAQyK1SEt2UIIAAAAQGoCLAAAAABSE2ABAAAAkJozsACAgXB6DhjDAAyVAAsAAEhCiAXA+mwhBAAAACA1HVg05lMzAHqaf0xB4DISgMHSgQUAAABAajqwAACA2bNRx1bZ5PeXDb5eNnh8ucpzb+f1t/vPCpkVJaAdHVgAAAAApKYDCwAYgBpaFAAAhksHFgAAAACp6cCiMZ9+A2D+AQCgLR1YAAAAAKQmwAIAAAAgNQEWAAAAAKkJsAAAAABIzSHuAMBAOMgdjGEAhkqABQAMY91r7QuzP44BYAwBFg2tRURRBgAAtkeIBcPSKQHtCLAAAIAUtpJflUbPA0yO/IqWHOIOAAAAQGoCLAAAAABSs4WQdrpwBBYA/agX/guY7YEMAOvSgQUAAABAagIsAAAAAFKzhZDGtH4DYP4BAKAtHVgAAAAApCbAAgAAACA1ARYAAAAAqTkDCwAYhuocLACAoRJgAQAzr4Zj3GEI49hABmAcWwgBAAAASE0HFo352AwA8w8AAG3pwAIAAAAgNQEWAAAAAKkJsAAAAABIzRlYAMBAOAcLjGEAhkoHFgAAAACp6cCioU4JAOiJzg0AgCETYAEAAL2rkSuKLuv8fAD0R4AFAAxn9QsYwwAMkgALAADoX7YWLGDnihLQjkPcAQAAAEhNBxYAMABaN2AY4xgA1qcDCwAAAIDUdGDRmE/OAAAAgLYEWLQlvwLA/AMAQGO2EAIAAACQmgALAAAAgNQEWAAAAACk5gwsAGAgHIQFADBUOrAAAAAASE0HFg2tRURRBgB6UDVgwQCGMQCMI8ACAAByEGLBsHRKQDu2EAIAAACQmgALAAAAgNQEWAAAAACk5gwsAGAgHJ4DxjAAQ6UDCwAAAIDUdGDRmE/OADD/AADQlgALAABIQRQNxjSMYwshAAAAAKkJsAAAAABIzRZCAAAggRo2HMHQFCWgGQEWzS87AGDq80+NqNUsBDN/JWkYAzCGAIv2Fx4AYP4BAKAhZ2ABAAAAkJoACwAAAIDUBFgAAAAApCbAAgAAACA1h7jTljN0AehtAjIJAQAMlQ4sAAAAAFLTgUVDaxFRlAGAHui+AgAYMh1YAAAAAKQmwAIAAAAgNVsIAYBhsIsQjGEABkuABQAA9M/NRGF4HJFMQwIsAGBAq1/AGAZgiJyBBQAAAEBqOrBozCdnAAAAQFs6sAAAAABITQcWAACQgl5+AMbRgQUAAABAagIsAAAAAFKzhRAAGAibj8AYBmCodGABAAAAkJoOLBrqIqIoAwA90LkBADBkAiwAYBhkWGAMAzBYAiwAACAHIRYY0zCGM7AAAAAASE2ABQAAAEBqthACAANhnwIAwFAJsLB4AMD8AwBAarYQAgAAAJCaDizaWYuIogwA9EADFgDAoOnAAgAAACA1ARYAAAAAqdlCCAAMgl2EYAwDMFwCLABgGEvfavkLMz+OAWAMARYuPAAw/wCGMtCem3zRkDOwAAAAAEhNgAUAAABAarYQAgAAvavRbgdhGfP8wHTZQUhLOrAAAAAASE2ABQAAAEBqthACAANhgxAYwwAMlQCLhtbCLmcAAACgNVsIAQAAAEhNgAUAAABAagIsAAAAAFJzBhYAMPtqOP8ZhjCOAWAMARYAYPUL5BjChjEMS6cEtGMLIQAAAACp6cCiMR+bAWD+AQCgLR1YAAAAAKQmwAIAAAAgNQEWAAAAAKkJsAAAAABIzSHutOUMXQB6m39MQuBCEoChEmDhwgMA8w8AAKnZQggAAABAagIsAAAAAFKzhRAAGAa7CGH2x7BxDMAYAiwAACCFKsGCQemiUwSasYUQAAAAgNR0YAEAA2DvEQxjHAPA+gRYNKQ9FAALXwAA2rOFEAAAAIDUBFgAAAAApCbAAgAAACA1Z2ABAIPgFCwwhgEYLh1YAAAAAKSmAwsAGAj9GwAAQyXAwuIBAFMQAACpCbAAAIActhJEl0bPA0xOUQLacQYWAAAAAKkJsAAAAABITYAFAAAAQGoCLAAAAABSc4g7ADAQTm0GYxiAoRJg0dBauM0EABa+AAC0ZgshAAAAAKnpwKItH4ADYP4BAKAxHVgAAAAApKYDCwAASEEzJQDjCLAAACtfoH+dcQyDHNfQiAALqwcABjL/mIPAdSQAQ+UMLAAAAABSE2ABAAAAkJoACwAAAIDUBFgAAAAApCbAAgAAACA1ARYAAAAAqS0qAW25/TEAfejMQQAAA6YDCwAAAIDUBFgAAAAApCbAAgAAACA1Z2ABAMPgCCyY/TE8yXFcvG8AzDIdWAAAAACkpgMLABgIrRRgDAMwVAIsGlqL9XuzAQAAALbPFkIAAAAAUhNgAQAAAJCaLYQAwMyb9M3LAADolwCL5gsIADD/AADQkgALAADonU5KGB63+KIlARbtdEoAQN/LX8AYBmCIBFi48ADA/AMAQGoCLABg9tl7BMMZy4AxDesYKQEAAAAAmQmwAAAAAEhNgAUAAABAagIsAAAAAFJziDsNdRFRlAGAHjjFHQBgyHRgAQAAAJCaAAsAAACA1ARYAAAAAKQmwAIAAAAgNQEWAAAAAKkJsAAAAABIbVEJaMstzAHoQxdRzUEw28O4upQEYCwdWAAAAACkpgMLAABIQgsWAOvTgQUAAABAagIsAAAAAFITYAEAAACQmjOwAACAFJyABcY0jCPAwlsUAOYgwBgGIDVbCAEAAABITYAFAAAAQGq2ENKWzm8AzD8AADSmAwsAAACA1HRgAQDDoAsLZn8M9zmOi/cUmPi4gh3QgQUAAABAajqwaGgtROwA9KPv1g0AACZJBxYAAAAAqQmwAAAAAEjNFkIAYBBsIARjGIDh0oEFAAAAQGoCLAAAAABSs4WQxjR/A2D+AQCgLQEWADAQQiwwhgEYKlsIAQAAAEhNBxYAMAyaN8A4BnLplIB2dGABAAAAkJoACwAAAIDUBFgAAAAApOYMLBpzcAEAfc0/5iCY9XFsFMOwFCWgIR1YAAAAAKQmwAIAAAAgNQEWAAAAAKkJsAAAAABITYAFAAAAQGoCLAAAAABSW1QCmlnr3CcVgH7UGhFVHQAABkqABQDMPvkVzL7OOAZgPFsIAQAAAEhNgAUAAABAagIsAAAAAFITYAEAAACQmgALAAAAgNTchZDG3DoGgL7mH3MQuI4EYKh0YAEAAACQmgALAAAAgNQEWAAAAACkJsACAAAAIDWHuAMAADk4xx2GpSgB7QiwAAALX8AYBiA1ARYNrYWIHYD+Vr5WvzDbo7hOdBSXMe8c23l87eH1YRZ1SkBDzsACAAAAIDUdWADAIOhkAGMYgOHSgQUAAABAagIsAAAAAFITYAEAAACQmjOwaMzpBQCYfwAAaEuABQAMhBALAGCobCEEAAAAIDUBFgAAAACp2UJIW3ZvANDX/GMOAtedgHHKYOnAAgAAACA1ARYAAAAAqdlCSGN6RAEw/wAA0JYACwAYAIdgwezrjGMYnKIENGMLIQAAAACpCbAAAAAASE2ABQAAAEBqAiwAAAAAUhNgAQAAAJCauxDS0Fq4ywQAANvlHoQAjCPAAgAsfYEcYzjzMC7ebmBH4wZ2SIAFAAxm7QsYwwAMkzOwAAAAAEhNgAUAAABAagIsAAAAAFITYAEAAACQmkPcaczpmwD0Nf+YgwAAhkoHFgAAAACpCbAAAAAASE2ABQAAAEBqAiwAAAAAUhNgAQAAAJCauxDSUBcRRRkA6IE7EMIghrGhDMNbIkIjAiysHwAYyMLXJASzPY6NYQDGE2ABAMNY+yoBAMBgCbBoRncoAH0RXgEADJtD3AEAAABITYAFAAAAQGoCLAAAAABScwYWjTmFBADzDwAAbQmwAIABqCHEgtkfx0YxDEtRAhqyhRAAAACA1ARYAAAAAKQmwAIAAAAgNWdgAQDD4PAcMI4fV7xHAAyNDiwAAAAAUtOBRWM+2gIAAADaEmABAAPhQxQAgKGyhRAAAACA1ARYAAAAAKQmwAIAAAAgNQEWAAAAAKkJsAAAAABIzV0IaWgtIooyANADdyAEABgyARYAMBBCLDCGARgqARYAAJCDDAuGxQYdGhJgAQAWvoAxDEBqAizacQQWABa+AABMgLsQAgAAAJCaDiwa8xE4AOYfAADa0oEFAAAAQGo6sACAgdCFBbM9gqtRDAPTKQEN6cACAAAAIDUBFgAAAACpCbAAAAAASE2ABQAAAEBqDnGnMUdvAmD+AQCgLQEWADAIIiyY8TFcDWQYHLchpCEBFgAwhKXvF1e/wCwPYwAYxxlYAAAAAKQmwAIAAAAgNQEWAAAAAKk5AwsAAEjCQVhgTMP6BFg05BYTAAAAQHsCLABgIHzKC8YwAEPlDCwAAAAAUhNgAQAAAJCaAAsAAACA1JyBBQAA5OAYLADGEGABAMNY9Fr4AgAMlgCLCawgAMD8AwBAOwIsrB8AGMj8YxICF5IADJUACwAASEGEBcA47kIIAAAAQGoCLAAAAABSE2ABAAAAkJozsGhoLSKKMgDQAyfnAAAMmQ4sAAAAAFLTgQUADIQuLACAodKBBQAAAEBqOrAAAIAcNFKCMQ1jCLAAABfJgDEMQGq2EAIAAACQmg4sGvPRGQDmHwAA2tKBBQAAAEBqOrAAgAGooQsLhjCOAWB9OrAAAAAASE2ABQAAAEBqAiwAAAAAUhNgAQAAAJCaQ9xpzOGbAAAAQFsCLABg5rkHIQxgHPcxkMsVbyQApCXAAgCGsvxVAjCGARgoARYAYO0LzNwYNuTB1Mx8cYg7AAAAAKnpwKKdLi4/RwAApsVHvAAAg6YDCwAAAIDUdGDR0FpowQKgH1qwAACGTAcWAAAAAKnpwAIABkIXFgDAUOnAAgAAACA1ARYAAAAAqQmwAAAAAEjNGVg05vwRAMw/gKEMhJvU05QACwCw8AUAIDUBFgAwEBIsMIYBGCpnYAEAAACQmgALAAAAgNQEWAAAAACkJsACAAAAIDWHuNNQF+6TCkA/HP4MADBkOrAAAAAASE0HFgAwELqwwBgGYKh0YAEAAACQmg4sAAAgBT1YAIwjwAIAAHKQYMGwdEpAOwIsAGAYi14LX5j9cQwAYwiwcOUBAAAApOYQdwAAAABS04FFWxqwAOhtAjIJAQAMlQ4sAAAAAFITYAEAAACQmi2EAABAErYCw7AUJaAZHVgAAAAApKYDi8Z8agZAP/OPGQgAYLgEWDRePgAAAAC0JcACAAbCxygw20O4GsYAjOUMLAAAAABS04EFAAyDzg0whgEYLB1YAAAAAKSmA4uG1iKiKAMAPdC6AQAwZDqwAAAAAEhNgAUAAABAarYQAgADYRshGMMADJUOLAAAAABS04EFAAD0rsb0e7DKFa8PTG6MwU7pwAIAAAAgNR1YNOazKwDMPwAAtCXAAgAActhKFl0aPU8LpefXh6zsIaQhARYAMH8LXwAAZooACwAYCAkWAMBQOcQdAAAAgNQEWAAAAACkZgshbdm9AYD5BwCAxgRYWEEAYP4BACA1WwgBAAAASE2ABQAAAEBqthACAANQwzZCGMI4BoD16cACAAAAIDUdWAAAQA6asMCYhjF0YAEAAACQmg4sGuqUAID++JQXjGEABksHFgAAAACp6cACAAZC+wYYwwAMlQ4sAAAAAFITYAEAAACQmi2EAABACjYRwrC4zRctCbBw2QHAIOYfMxC4igRguGwhBAAAACA1ARYAAAAAqdlCCAAMhA1IAABDJcACAAD6V0MODUNTlIB2bCEEAAAAIDUdWADAMOjcAGMYgMESYNHQWugRBcDKFwCA1mwhBAAAACA1ARYAAAAAqdlCSDt2EALQl3rhv4DZHsgAsC4dWAAAAACkJsACAAAAIDUBFgAAAACpOQOLxpxdAID5BwCAtgRYAABADrJoGJZOCWjHFkIAAAAAUtOBBQDMvlof+wPM8kBWAgDG0oEFAAAAQGoCLAAAAABSs4UQAABIwSZCAMYRYOGyAwAAAEjNFkIAAAAAUhNgAQAAAJCaLYQAwEDYxg6zP4aNYxiWTgloRgcWAAAAAKkJsAAAAABIzRZCGlqLiKIMAPTAtiMwlBsr3mYAMtGBBQAAAEBqOrAAgGHQHQHGMACDpQMLAAAAgNR0YAEAA6F9A4xhAIZKBxYAAAAAqenAAgAGQe8GGMMADJcAi8ZXHi49ADD/AADQli2EAAAAAKQmwAIAAAAgNQEWAAAAAKk5AwsAGAjnYIExDMBQCbAAAID+1ZBhwdAUJaAdWwgBAAAASE0HFg11IWIHoB9V5wbM+ig2jGFwrA5pSQcWAAAAAKkJsAAAAABIzRZCAGAAnP4MADBkOrAAAAAASE2ABQAAAEBqAiwAAAAAUnMGFo05fwQAAABoSwcWAAAAAKnpwAIAAHKYZDN/mfLrARGdEtCOAAsAsPIFjGEAUhNgAQDWvgAApOYMLAAAAABS04FFYz7+BsD8AwBAWzqwAAAAAEhNgAUAAABAagIsAAAAAFJzBhZtOYIEgN7mH5MQuJAEYKh0YAEAAACQmgALAAAAgNRsIaShtYgoygBAD2w9AgAYMgEWAACQwlai6FLbPA+QY0zD1dhCCAAAAEBqOrAAgNlXw8e8MIRxDABjCLAAAKtfAABSs4UQAAAAgNR0YAEAM88OQgCAYRNg0W7xUGunCgD0NAspAQAkUyKsEWlGgEXDpUM5qwoA9DMHAQDZdBFnVIFWnIFFM6WL06oAAABARETUeFgRaEWARTPdqAqwAAAAeMxIkwPt2EJIu/emrp6uo6IQAPTAMe4wjHEMDIldOrQkwKKZhbrrwdVYUwgAALZnihmWj11h8lZLPKQKtGILIc3seeEffD5KnFMJAACAuXfuj7487lQGWtGBRTOlRHf64/WzEfEc1QAAAJhrnzpxIjploBUBFq3dEQIsAPrg+ByYmzFs+x/MxJi+QxFoyRZCmiqleJMCAACwOLQ2pCkBFo11t6sBAABcso5XAubx9750n1AFWrKFkKZGC93vr60uKAQAPbCHEIzhCS3E/cuBLevW4vdVgZZ0YNHUvq/6w5MR8WmVAABgEoRJMBP+7Nve6Q6EtKUDiwmovxsRz1IHAKY49ygBMFaResG0R93vmJtpTYBF+7eqWn+3lvJ9KgEAwFZcbblbwpIYZmIs1+53VIHWBFg0152PD5ZdsRIRS6oBAEALZYrPpWMLdmR5bSU+rAy0JsCiuUNf+5FTpz/2te+LiNeqBgAAm6e/CgYwjH/zde+JBxWC1gRYTMovhwALAIDNL3rXza922gxVprzvUPMW867U+GVVYBIEWEzEgd1nfvPM8oFTEXFMNQCY3uoXGNRCeBZ+RokVXOrUIxHvVwYmQYDFZCby596+cvqjX/v2KPH3VAOAqZBfwXCuJVs9T9n5c5eB1AKm9Av7669/R6woBJMgwGJi1urqWxfKwpv8ngEwedIrGMbaN8HPIDGCbS8BYzXepgxMykgJmJQjL/roZyLqu1QCAIBpa9F9BWxejfj1b3t3fEolmBQBFpP+FfvJiOjUAQCAaZmJLippGsNSRyXerAxMkgCLiTr4gv/0iYj6WyoBAEB2VwZfpcH3y6mYE//Hq98e/1kZmCRnEzF5C/Ufx1p5ZUTsUgwAJsc5WGAMj+++EiTBxKyUEv9EGZg0HVhM3MHn3fafaxSH+QEAMFE7Ca8c3g7bHXjx1le/Pf5UIZg0ARZTcbBb/R9rxF+oBAAAzdfPpX3nlTwLNuXko138lDIwDbYQMp2Lihd99JHTH3/Jj0St71ANANqzfRDm9jpzg6SpNHiOlo+BAU6///D174wzCsE0CLCYmoPP/8g7T3/sxe+OiO9QDQAA1lkMb9qFAGnMY3aSL5VGj5FxMWSlxjte/a74P1WCabGFkKlaLee/N0p8ViUAANjWorlcvfupbPH5pv8P4d8jM+8zu0u8SRmYJgEWU3XN8//owVEtb4iIZdUAAGAzHg+tNhM27TQbcuA7XNVyjOL1L39nPKQUTJMthEzd/hd85LYzH3/xj9Ua/0I1AGijRlTnYMFsD+OLY3hbZ1Jt4yVbBVHyLOZsqP7Qa94eH1MJpk2ARS8OPP8P/+Xpj73omRHlB1QDgCYX1EoAMz+GtxoobfsOgzu4Y+Fmf8bS4IcWjJFwoP7r17wrflEh6IMthPTmwKef8YMR5V0qAQDA1ZR1/mzrecr4597uYzfz92AA3vNoiX+gDPRFBxb9XYS8/p1r9fbn/pdnlvcejoiXqwgAwBxfG8Zkg5+ddF2Ne3yZcD0gkd9bOBPf9fr3xZpS0BcBFv1eqDz39pUv3PbCv700Kh+sES9REQCA+VRjMluBHw+e1nvuss7fLxv8fJt6vY2+VyrFLK7ZIv7TwlK89lXvcyMu+mULIb07+qKPPnRmYeWba8T7VAMAgCaL7rJx19WWtv5NufsKEvlwtxwvf9WvxsNKQd8EWKTwpOf9ydmDDx14TSnxv6kGAADb8XhotdXgKqJNeLVhqCXxYtbU+JW7r4lXvva9cVoxyMAWQvJccNz8e6u1xvee/viLHigRP6QiAGz1ShuYs+vHnd4RMLZ+t8BthVdb/efyr5b+Z9Sffc274seKyZVEBFhkuwjpIm774Ydve+F/KGX0byPqNaoCwGautIFBXyNu73Hb/foOD3xv90CYuodLxJte8854u1KQjQCLlA696KPvefRjz//4ah39RkR8nYoAsDEJFsy6De9CWLf2PDv6njGnsJcdvmbLnx8m5KNrC/GG1709PqMUZOQMLNLa+4KP/8WBQw99U63x1gi3awUA4InKFX82871b/eKOwiuJFPmtRsRbzpX4euEVmenAIvcFybM/vRwRP3zmY8//d7WWX4woX68qAABzdk046ceW7T2+dXgl66IHt9Ua3//ad8dtSkF2AixmwoEXfPyPa41vOPvxF91Sa31LRFyrKgBcUMMuQhjAOG4V4JQG31h2+hrSKHL7Qi3xEx9/bvzPJ05EpxzMAm+rzJz7/uCvHdy759x/U0v8o4h4kooAcP70mXjwzz6pEDDDHrwn4s//ZHtJdGn8gNLi9XRfkdP9NeIXutX4F697TzyoHMwS75PMrHv++Kv3Hzi/63triR+JiKeqCMD8eizAukMhYIY9FmBNcNFSmnzLRMIrCzOm4N4a8Uu7dsdbX/Wr8bByMIu8TzLz6qeetfvMw4deW6LcUiNeEbbGAswdARbMvgfvifiLP+lntVPaPZXwikyL/fO1xPtrjV/edTbe+6r3xbKqMOO/0zAcp//4q6+L87u+K0p9Y0S8OCIWVAVg+GwhhNm34wBrgsHRJMMrizIaW4uIj0TEry+W+I1XvTPuUxKGwnslg3Xv7c89sG956euiG72slvqyiHh+RIxUBmB4BFgw+64aYDVauZQJfa/wih59NmrcWkvcurAUt7761+IBJWGIvF8yN+69/bkH9j+658Zu1N0YtdwUEV8eEU+JiAMRcSQiDn7xzx7VApgtAiyYfQ/+1QS2EG5z0VMm/QIWY2zOuYg4HRGno8SDEXEmatxZIu7oIu4YdfHJRxfik69/Z5xRKubB/w+GhKulCue+wwAAACV0RVh0ZGF0ZTpjcmVhdGUAMjAyNC0wNy0xMFQwODowNTowNCswMDowMNXAicAAAAAldEVYdGRhdGU6bW9kaWZ5ADIwMjQtMDctMTBUMDg6MDU6MDQrMDA6MDCknTF8AAAAAElFTkSuQmCC;" vertex="1" parent="1">
          <mxGeometry x="329.5" y="184.53" width="75" height="75" as="geometry" />
        </mxCell>
        <mxCell id="10YtIQFsHozx5cypo1v_-43" value="&lt;b&gt;&lt;font face=&quot;Times New Roman&quot;&gt;PowerB.I.&lt;/font&gt;&lt;/b&gt;" style="text;html=1;align=center;verticalAlign=middle;whiteSpace=wrap;rounded=0;" vertex="1" parent="1">
          <mxGeometry x="272" y="259.03" width="190" height="20" as="geometry" />
        </mxCell>
        <mxCell id="10YtIQFsHozx5cypo1v_-47" value="" style="shape=image;verticalLabelPosition=bottom;labelBackgroundColor=default;verticalAlign=top;aspect=fixed;imageAspect=0;image=data:image/png,iVBORw0KGgoAAAANSUhEUgAAAOEAAADhCAMAAAAJbSJIAAABuVBMVEX///8Ax9QArUbkOSEBfO4R4e7/dVcE1lkMtv8AxNJKSEgAeu4MuP8Aq0UAeO4A3+0Ace0AdO0Aqz//dFYAuv8AqTjiHwAS5PbjKQAAy9oAsP8AdvQAqDT/clH/b0zkNRvjLQ3sLgAE2VL+9fTqSC8DgvAE2k0K1OH40s7s+vv86+n/aEXvVDpl1+AKq/wFjvPS5PsBtkoDw1D1/PhCumnlRTHnWEjoYFHxp6D63tvU8/bl+Pr98O7tiX9B0NvreGyL4Oe36/B9ibTtfGM/vMSkb4iLpqQHlvWexPcBiN4DvI/p8v0BhONAkfABkNMDylMDslsBlM5vqPMN0sIFuHALyall34xdwn3k9erL6tWU1ahUnPJ2yo/e6/zpaVrvmJD0u7XztK7sgHad5evukon+ysL9rZ/+mITIUVJanNRoksOMgai9XGfWRDq/joBVyv+vmZDXinlitLiCzv7AkoWhnpii2v6raX7FVFdAVV5eTkpDWGJkR0NOQjJKOzobcs+FtfVCXkdOPEgemEYDsaIDo7gDzG0DuJUP2NUCmsbA2PkDwIgDqq1X4Hp24ZaL5Ka47shzyY2Q0qOAZSt/AAAOtUlEQVR4nN3c+X8TxxUA8JVsyxZry7YkCxldhiAw4NgkvrkDSQ2YgLjqA2ODAy2BQEuatKFHSkhCKElbwl/c2UPSanfu90Yyfb8AiS3z/bw3782sRliWZZ048Z4b1v9pjOdzuVw+nx8bq3Ttn52dm5vfPH16+97W1sLdO/fHFw+/w/Bjp04dI7/MVboaUanHmBOEnXMiv39uc/vewt3744dPvEveY8lYLEZ+nQ8IGeGRHW++Mju/vXV3fPEdkB53gMlDlrWYExNbtJ61Mnd6687iiU4z2OECXaG1mFciBqh5ktO5kwv3D3daQ4njsVhDqEv0oSSlucrm1p2dxTwU82Pa/ePiGIDoO0k+NxfGd8rybAB9oXUYTPSYufz81nhnbW5Mx8JC63AFg9jlJXN+YbGjviAw1viPaERXmdt/spOpjNGE1okuPKKbyvz2/R0ADAitE/sxiSTG8pWOZPJUkiG03ptFJhJkbvZuZ4EtQkIcwyZ2VfL5k22dlCFgq9AI0UnkZvuKNQw8Ff6CORPErkpurk3GMDAqNEQkxvl2zMgIkCI0RSTG08bXYxRIE1rzhohkeiyYBb4fBcbep32hMWJXftZkqdKAdKG1aYxYyW21F5ikC63NvCliV37O0GMBKjCWPMP48tPmiJUxI4ODDmQLjRJzBjZyZ+hAjtDaNkfsyt1rFzCW/Iz9TSaJ+e02AblC62TOIHGzPcBY8iPeN94zSBxDJHKAseQx7rcaJc5jAT/jAEVCa8skMdEGoFBomIjxcJUPjCWPi15gwSCxC4H4ER/oP9TvGHECTBQBY0mJFzFJLAGJQqCU0LprjjiRARHFwPCDKEbcMUfMZEr6Rw0ZIO2I31biRCKT0SUekwDKCg0SE4lMSe/xjRSQccSnxH1DxEpJlygHZB3xKTFuiDiRIMSy+tMbOSDveNg2YsIhHlElSgL5h6coEf19my6vTNWzKAsUHJ4iRMh9BmY4ZaqaxeOyQEWh6sUbudifUCYel/XJbLxDRBNZTPhxRPYRnHwGpTbexomVjCJRIYMkVIWo9xl8YTmhRDwkVgVDFWiCOJFoEsVXGxSBsps2o8SAUExUBGoJkW+lNJqpFFEVqLKlMUdsESaO3OH85GmxCUWIfCulVZg4wnlTQxWoOvADRNS7RQlZ4il1oehZIpuImcVEmPg7+g8dVZj0daHiliYYiBdvwkIGkXILQSzUB2Je2YgIqUQdoM7AN0GMCilEPaDWOGwG1pUNijBC1APKP6VhBM6Vjf00YYioCVQ64Zsj0oWJ8u+bP4dxC0Es1B2HASLCO+EMYYCoCwSMQ1TiBEPYIGoD1c+/tIDfSmEKfaI+EDgsgsTKXhJ5vUVZOcIUukQIEDgs6rGd3/vg7OefP3z0RX6vzl6uxBYSIgSoe7KIEs9ms/392Wy27+xjdWPzOQ2V+GQUIIS3Ui/+0N/nBVE+nN2rSuQBCfFLgBChlbrAvkBks48U08gaFn6U/qifRJRWGgI6xquPldLIbqVuZJ4CytQI0KnVT1SInFYKFUJ3pW78aU9ESNL4UP7BcYXXSp0q1ReitFIqkBD7H0sPR24rJcKv9YUIrZQBJJXa90ByryNoNJBeCnmEIQI6i/ELucUoajQJbSBCo+EApYmBdy3oRQoYFuBGwwW6RIlC5e9oSJF+rA0EH38FQIf4jUS7EaTwK8C8B+5o/iwCEmL/AyFRsAzLkH23caDTUR+L5iJ/GQJGBfToJAV0iKLRzwVmzun7gPNeEkhG/+f8hsqfhoA2A1yG0kBCPMslcpdh+TeAGgUtQwUgIf6FQ+TOihLk8Atahq9VgIT4gL0UeUWaOQcCAqbhUTWg0210ijSTAAyKGGRTqgp0zlKsOuWcnDKlj0Ep1N+UqgMJ8RNWFtnA8pcwoPasODqpDiRExuBnFikYqD0rdDJIop8+FZmdFA7UnRW39YAkiY9oRFYnha9B3ZOTNpBRp4wizSTgQL0HGAAgvU7pRVo6lwQD9TrpMgBI7af0Ii09hfP0OukyxOfM/fBVMfrzizLgyBsQanTSJrA/GlJJjMx9ahMFbbYbMaoLJJhs3+Tk0tTUVNUN8pulpck9fVkJZ/ab1iRS+kwpAZ4SbmjsSZc93p6lqaqdsm27uxG2G91TjpOvDDUbyjAsP4mhAGPJaTEpAuzPTi5VW3EtYdup7urSJC+X2U+CT20ifQarQpU+CVQP0ieWulMsXICZSnlKehKDh4xInyk/xRgSnlD5WOH4mMmLKknJ0gu2ZWcTTiDkmVMolFOYneyW5TWU1aU9UWR/f/POZmufKZ+Eb2MaoTwq+qopNZ+HtF1kKImNhzaVlhZawlqBbqg+vpiUWH+sTLrl2kKsJ3EiWKBP0FagE6opvDWs6fMzOTUZNNbHfvNwnymfw5mBjVBMIQzY7S3JQCL9M0ZjVJQyqAUaU07hLZ0lGEU2E+klsZ7CUulrpBnfBKo10mvQDNaDJNJvrdnHs49nvVFRKn+FugA9odIFEzRgt7Mi3dbaf/XZrl3P/nrO8T1BnBANoNKO9PwQHrDb6zrZ/m93ubFZfmrAF1M7+b7GBXa7XedvHnDX3834lNrMMkaTCUf1H77wW9gDbRbwjEoKp3QHPS/+2RD+YkKoNAqfI3aZQJjNoUofPYq+CEnYhUvf+cJnB/GJarO+il+jduHCxQMfvvBSGOsZ1PicFh+oNCjwa5Tk7+KBfb29H3734sWLZ7EeEoOoeVTbzCxjA4nvJ8dH4oPvvx+o7e7x4mAMC6m4W0PZjgZi2P5hn+frvTIQj8eL1+tErGJNqp0okNtMqvBjr+8jKXSE8UYS3WKFJ1IRaH2K2WbswuWXB+o+L4UtSfQS2V4g6nZtuHqx6SMpjHtRaxE6KxJSrQfVgJi7GVKg+/YFgL0DvrB4M0x0qlUvgaM9ikDEFBYuvAwmkMyKujA+EAZqL8mDPapPuNFWYarwS6uvtzfeiJFoEn2k2po82KMMvI2VwsKll2HglYEmMU0FemtSMpVJx6cMtK7hzEK78GPYVx8VvvAiPYkN5SifSXiDzhcqfywGaTuTsn+OAnsDQNJsXvGEXsUyS3bU42kArfMowsLlK/uiwA+DwHj6BjeJDSZxHhytS0dHyZ8GBxv/V+ODTSiHClqFtvQZf+zLCLmhcXcNY8NmF36iAq8MhIjUiWEYiNFnUt2RHhrtM97E4DcbI0ALXqOpS7QlGOkzks2GE4NaN9deg/vM8GU6L7ifaTabyPbUNBBepIWrjARSipSzszEGtKApLPyLvgTpRQqoU10gtEh5QEqROqFXp7pAaJEOX2UDw8MQ1E+1gRYsg6nLHGBkGDbq9LoycVD7s6GwcZ+6wPYxizTOPWRgA63nkCK1h6/whLRO6gvl9qcYQNjZt/Azc044wQSqLkUI0IIUafQ8L1mkcepDGzYQ8sFQyKxIXeACOUXqEqWnIggIWoapl1wgr0hVug0MCFmGhR/4KWTOirqw1g6gpZ9C+xIfGDrd6xIHz8CAR/WXYeEit4+SDY0gh1IzAwq0zmvnUJhC0TJ0YuRnAREMtG5pL8PCT4IUipahR+RnEQ4EHO9tQQbFy9AnmgXe1l6GKd6Rwg3+NGwEp90gAAHzfvgHQZGyTk40IqNSMf61IP15L9iRSi5Dj5imn6VQ/jkkQKO5IVqG0kLGHhUFCDj9CnMo12j8GKm9ChtxgMv6B4uCaB1KNpp6pY7c3N1qRAFCDhbcpxdOKAHdNAZW4+7dOEDAjkY88VWFZDXWrve4idy9+/oGkhDymG3o2r95RPlWGsxj+sbNV69e3bxRLCIRARcwhq9ZFo+oJXTWY7FYHEkT7K8oQgDwlvP9v2UTVYYFPZ8YRP03tz0gj6g0LOjEFbhQ+3CYulV/if+wiGrDwhRR9+37JpCdRQQhAlFzV5r6NPgijCxiCOFEvV1pK5BFRPA5xBmYUOs5WxjIIOII42kYUQs4FX2d/1KISEIYUWffTQNSiVhCckDWF2q8r5aq0l8qSkQTEqLyNb16qJ8sbAaQQsQTAojK45ANJMTQYQplWkCJquPQri5zXi2URUxhPB3XIyqenexuHtCy1g8YE8bTA1pEtXEoAlrWmyARvvNuJcZXNYRVXGArEXx6wiAqAW0xsIWoeQJGJap8Ita2b0u9ZoCILYyn06pElS3NsBwwSEQXEqMiUeH8m5IFWtZafWjgNlMvRtSI8luaoaMKL7t2wEyr8YhrKkLpLc2wCrCRRfRW40ZRhSj7OFgpgwGiCaAaUXLTpgysEz8Q/3UNE+U2bUOvlYE+0UyZqhClntJoAS1r1VyZKhBlHulrAj2ikW6qQpTYlmoDPaIpoSxRvAwBQJdoLInx4huZv4Jw0zZ0HgC0rGlzK1GOKNyWAoEO0VQ7lSOKhGCgQzSxOa0T10U/XvAsEQFIiFfSxoRiIv9ogQIkxJcdJHKPFkPPUYCEWDNJfKstRAOSmOkYkXN4wgQS4kiHiOzD0zAq0LJWTBI5t1KYQuceCTKx2BEi63iID7SsdZNE5q0UhtAEkBwYR8z1G+bFG/oB2AyQ7MNr5hYj6z4DVTh8i/7FCLFhrlIZRNoR3yCQVOqAsTTSiZR3nlImgZbTcEytRioxKozeI8GO1RVTRtqVjchjGvNAEmszhpYj5W5RWNgWoGOsmcljNIvVzgAtN48mjBFiq5B+E8hUkPVooK+GidXOAUlMrxso1tCtlGongU6sbaSx93KtxACQdxPILHKliItsuXgTBGr841loyI04pjJIDABlrlkYjLX1mWIxjaQMEOvjUOaijPlYezszgpPL5q2U1E4COjG9tr6SJkoos0485AnlbgK1L1bX3q7EizCnf/HG+zTJTgN6QbK5MRMnVasJ9Yiu0Fa4KNP2mF59s/7rjJNQAlWUOkT3jZmdDKzH9Oram7cbM7UB50NfLlZC627gUrYtfZdrR8T0KrES7MpKjSTWjREn0l5EhUenPn2ngK1BuKtra0S8vv5249eVmZmZWq024CzBEefzfWmlu1PvUkz7QX77PyBAUU6X0ZlTAAAAAElFTkSuQmCC;" vertex="1" parent="1">
          <mxGeometry x="-161.73000000000002" y="-100" width="60" height="60" as="geometry" />
        </mxCell>
        <mxCell id="10YtIQFsHozx5cypo1v_-48" value="&lt;font face=&quot;Times New Roman&quot; style=&quot;font-size: 24px;&quot;&gt;&lt;b&gt;Apache Airflow&lt;/b&gt;&lt;/font&gt;" style="text;html=1;align=center;verticalAlign=middle;whiteSpace=wrap;rounded=0;" vertex="1" parent="1">
          <mxGeometry x="-116.12" y="-85" width="216.25" height="30" as="geometry" />
        </mxCell>
        <mxCell id="10YtIQFsHozx5cypo1v_-59" value="" style="image;aspect=fixed;perimeter=ellipsePerimeter;html=1;align=center;shadow=0;dashed=0;spacingTop=3;image=img/lib/active_directory/internet_cloud.svg;" vertex="1" parent="1">
          <mxGeometry x="-504" y="50" width="50" height="31.5" as="geometry" />
        </mxCell>
        <mxCell id="10YtIQFsHozx5cypo1v_-62" value="" style="image;aspect=fixed;perimeter=ellipsePerimeter;html=1;align=center;shadow=0;dashed=0;spacingTop=3;image=img/lib/active_directory/internet_cloud.svg;" vertex="1" parent="1">
          <mxGeometry x="-256" y="53" width="50" height="31.5" as="geometry" />
        </mxCell>
        <mxCell id="10YtIQFsHozx5cypo1v_-63" value="" style="image;aspect=fixed;perimeter=ellipsePerimeter;html=1;align=center;shadow=0;dashed=0;spacingTop=3;image=img/lib/active_directory/internet_cloud.svg;" vertex="1" parent="1">
          <mxGeometry x="11" y="50" width="50" height="31.5" as="geometry" />
        </mxCell>
        <mxCell id="10YtIQFsHozx5cypo1v_-64" value="" style="image;aspect=fixed;perimeter=ellipsePerimeter;html=1;align=center;shadow=0;dashed=0;spacingTop=3;image=img/lib/active_directory/internet_cloud.svg;" vertex="1" parent="1">
          <mxGeometry x="245" y="50" width="50" height="31.5" as="geometry" />
        </mxCell>
      </root>
    </mxGraphModel>
  </diagram>
</mxfile>
